<?xml version="1.0" standalone="no"?>
<!DOCTYPE svg PUBLIC "-//W3C//DTD SVG 1.1//EN" "http://www.w3.org/Graphics/SVG/1.1/DTD/svg11.dtd">
<svg width="800" height="600" version="1.1" xmlns="http://www.w3.org/2000/svg">
<rect width="800" height="600" x="0" y="0" style="fill:rgb(238,238,238);stroke:none"/>
<rect width="800" height="600" x="0" y="0" style="fill:rgb(255,255,255);stroke:none"/>
<text x="2" y="566" fill="rgb(0,0,0)" font-family="Arial" font-size="12">0</text>
<text x="2" y="490" fill="rgb(0,0,0)" font-family="Arial" font-size="12">1000</text>
<text x="2" y="414" fill="rgb(0,0,0)" font-family="Arial" font-size="12">2000</text>
<text x="2" y="337" fill="rgb(0,0,0)" font-family="Arial" font-size="12">3000</text>
<text x="2" y="261" fill="rgb(0,0,0)" font-family="Arial" font-size="12">4000</text>
<text x="2" y="184" fill="rgb(0,0,0)" font-family="Arial" font-size="12">5000</text>
<text x="2" y="108" fill="rgb(0,0,0)" font-family="Arial" font-size="12">6000</text>
<text x="274" y="30" fill="rgb(0,0,0)" font-family="Arial" font-size="12">Quality score distribution over all sequences</text>
<line x1="37" y1="560" x2="790" y2="560" stroke="rgb(0,0,0)" stroke-width="1"/>
<line x1="37" y1="560" x2="37" y2="40" stroke="rgb(0,0,0)" stroke-width="1"/>
<text x="281" y="595" fill="rgb(0,0,0)" font-family="Arial" font-size="12">Mean Sequence Quality (Phred Score)</text>
<text x="52" y="575" fill="rgb(0,0,0)" font-family="Arial" font-size="12">22</text>
<rect width="47" height="520" x="84" y="40" style="fill:rgb(230,230,230);stroke:none"/>
<text x="99" y="575" fill="rgb(0,0,0)" font-family="Arial" font-size="12">23</text>
<text x="146" y="575" fill="rgb(0,0,0)" font-family="Arial" font-size="12">24</text>
<rect width="47" height="520" x="178" y="40" style="fill:rgb(230,230,230);stroke:none"/>
<text x="193" y="575" fill="rgb(0,0,0)" font-family="Arial" font-size="12">25</text>
<text x="240" y="575" fill="rgb(0,0,0)" font-family="Arial" font-size="12">26</text>
<rect width="47" height="520" x="272" y="40" style="fill:rgb(230,230,230);stroke:none"/>
<text x="287" y="575" fill="rgb(0,0,0)" font-family="Arial" font-size="12">27</text>
<text x="334" y="575" fill="rgb(0,0,0)" font-family="Arial" font-size="12">28</text>
<rect width="47" height="520" x="366" y="40" style="fill:rgb(230,230,230);stroke:none"/>
<text x="381" y="575" fill="rgb(0,0,0)" font-family="Arial" font-size="12">29</text>
<text x="428" y="575" fill="rgb(0,0,0)" font-family="Arial" font-size="12">30</text>
<rect width="47" height="520" x="460" y="40" style="fill:rgb(230,230,230);stroke:none"/>
<text x="475" y="575" fill="rgb(0,0,0)" font-family="Arial" font-size="12">31</text>
<text x="522" y="575" fill="rgb(0,0,0)" font-family="Arial" font-size="12">32</text>
<rect width="47" height="520" x="554" y="40" style="fill:rgb(230,230,230);stroke:none"/>
<text x="569" y="575" fill="rgb(0,0,0)" font-family="Arial" font-size="12">33</text>
<text x="616" y="575" fill="rgb(0,0,0)" font-family="Arial" font-size="12">34</text>
<rect width="47" height="520" x="648" y="40" style="fill:rgb(230,230,230);stroke:none"/>
<text x="663" y="575" fill="rgb(0,0,0)" font-family="Arial" font-size="12">35</text>
<text x="710" y="575" fill="rgb(0,0,0)" font-family="Arial" font-size="12">36</text>
<rect width="47" height="520" x="742" y="40" style="fill:rgb(230,230,230);stroke:none"/>
<text x="757" y="575" fill="rgb(0,0,0)" font-family="Arial" font-size="12">37</text>
<line x1="37" y1="560" x2="790" y2="560" stroke="rgb(180,180,180)" stroke-width="1"/>
<line x1="37" y1="484" x2="790" y2="484" stroke="rgb(180,180,180)" stroke-width="1"/>
<line x1="37" y1="408" x2="790" y2="408" stroke="rgb(180,180,180)" stroke-width="1"/>
<line x1="37" y1="331" x2="790" y2="331" stroke="rgb(180,180,180)" stroke-width="1"/>
<line x1="37" y1="255" x2="790" y2="255" stroke="rgb(180,180,180)" stroke-width="1"/>
<line x1="37" y1="178" x2="790" y2="178" stroke="rgb(180,180,180)" stroke-width="1"/>
<line x1="37" y1="102" x2="790" y2="102" stroke="rgb(180,180,180)" stroke-width="1"/>
<line x1="60" y1="560" x2="107" y2="560" stroke="rgb(136,34,85)" stroke-width="1"/>
<line x1="107" y1="560" x2="154" y2="560" stroke="rgb(136,34,85)" stroke-width="1"/>
<line x1="154" y1="560" x2="201" y2="559" stroke="rgb(136,34,85)" stroke-width="1"/>
<line x1="201" y1="559" x2="248" y2="555" stroke="rgb(136,34,85)" stroke-width="1"/>
<line x1="248" y1="555" x2="295" y2="551" stroke="rgb(136,34,85)" stroke-width="1"/>
<line x1="295" y1="551" x2="342" y2="543" stroke="rgb(136,34,85)" stroke-width="1"/>
<line x1="342" y1="543" x2="389" y2="534" stroke="rgb(136,34,85)" stroke-width="1"/>
<line x1="389" y1="534" x2="436" y2="519" stroke="rgb(136,34,85)" stroke-width="1"/>
<line x1="436" y1="519" x2="483" y2="501" stroke="rgb(136,34,85)" stroke-width="1"/>
<line x1="483" y1="501" x2="530" y2="477" stroke="rgb(136,34,85)" stroke-width="1"/>
<line x1="530" y1="477" x2="577" y2="429" stroke="rgb(136,34,85)" stroke-width="1"/>
<line x1="577" y1="429" x2="624" y2="371" stroke="rgb(136,34,85)" stroke-width="1"/>
<line x1="624" y1="371" x2="671" y2="263" stroke="rgb(136,34,85)" stroke-width="1"/>
<line x1="671" y1="263" x2="718" y2="52" stroke="rgb(136,34,85)" stroke-width="1"/>
<line x1="718" y1="52" x2="765" y2="40" stroke="rgb(136,34,85)" stroke-width="1"/>
<rect width="183" height="23" x="607" y="40" style="fill:rgb(255,255,255);stroke:none"/>
<rect width="183" height="23" x="607" y="40" rx="0" ry="0" style="fill:none;stroke-width:1;stroke:rgb(192,192,192)"/>
<text x="610" y="55" fill="rgb(136,34,85)" font-family="Arial" font-size="12" font-weight="bold">Average Quality per read</text>
</svg>
