<?xml version="1.0" standalone="no"?>
<!DOCTYPE svg PUBLIC "-//W3C//DTD SVG 1.1//EN" "http://www.w3.org/Graphics/SVG/1.1/DTD/svg11.dtd">
<svg width="800" height="600" version="1.1" xmlns="http://www.w3.org/2000/svg">
<rect width="800" height="600" x="0" y="0" style="fill:rgb(238,238,238);stroke:none"/>
<rect width="800" height="600" x="0" y="0" style="fill:rgb(255,255,255);stroke:none"/>
<text x="2" y="566" fill="rgb(0,0,0)" font-family="Arial" font-size="12">0</text>
<text x="2" y="481" fill="rgb(0,0,0)" font-family="Arial" font-size="12">2000</text>
<text x="2" y="395" fill="rgb(0,0,0)" font-family="Arial" font-size="12">4000</text>
<text x="2" y="310" fill="rgb(0,0,0)" font-family="Arial" font-size="12">6000</text>
<text x="2" y="224" fill="rgb(0,0,0)" font-family="Arial" font-size="12">8000</text>
<text x="2" y="139" fill="rgb(0,0,0)" font-family="Arial" font-size="12">10000</text>
<text x="2" y="53" fill="rgb(0,0,0)" font-family="Arial" font-size="12">12000</text>
<text x="278" y="30" fill="rgb(0,0,0)" font-family="Arial" font-size="12">Quality score distribution over all sequences</text>
<line x1="45" y1="560" x2="790" y2="560" stroke="rgb(0,0,0)" stroke-width="1"/>
<line x1="45" y1="560" x2="45" y2="40" stroke="rgb(0,0,0)" stroke-width="1"/>
<text x="281" y="595" fill="rgb(0,0,0)" font-family="Arial" font-size="12">Mean Sequence Quality (Phred Score)</text>
<text x="55" y="575" fill="rgb(0,0,0)" font-family="Arial" font-size="12">18</text>
<rect width="37" height="520" x="82" y="40" style="fill:rgb(230,230,230);stroke:none"/>
<text x="92" y="575" fill="rgb(0,0,0)" font-family="Arial" font-size="12">19</text>
<text x="129" y="575" fill="rgb(0,0,0)" font-family="Arial" font-size="12">20</text>
<rect width="37" height="520" x="156" y="40" style="fill:rgb(230,230,230);stroke:none"/>
<text x="166" y="575" fill="rgb(0,0,0)" font-family="Arial" font-size="12">21</text>
<text x="203" y="575" fill="rgb(0,0,0)" font-family="Arial" font-size="12">22</text>
<rect width="37" height="520" x="230" y="40" style="fill:rgb(230,230,230);stroke:none"/>
<text x="240" y="575" fill="rgb(0,0,0)" font-family="Arial" font-size="12">23</text>
<text x="277" y="575" fill="rgb(0,0,0)" font-family="Arial" font-size="12">24</text>
<rect width="37" height="520" x="304" y="40" style="fill:rgb(230,230,230);stroke:none"/>
<text x="314" y="575" fill="rgb(0,0,0)" font-family="Arial" font-size="12">25</text>
<text x="351" y="575" fill="rgb(0,0,0)" font-family="Arial" font-size="12">26</text>
<rect width="37" height="520" x="378" y="40" style="fill:rgb(230,230,230);stroke:none"/>
<text x="388" y="575" fill="rgb(0,0,0)" font-family="Arial" font-size="12">27</text>
<text x="425" y="575" fill="rgb(0,0,0)" font-family="Arial" font-size="12">28</text>
<rect width="37" height="520" x="452" y="40" style="fill:rgb(230,230,230);stroke:none"/>
<text x="462" y="575" fill="rgb(0,0,0)" font-family="Arial" font-size="12">29</text>
<text x="499" y="575" fill="rgb(0,0,0)" font-family="Arial" font-size="12">30</text>
<rect width="37" height="520" x="526" y="40" style="fill:rgb(230,230,230);stroke:none"/>
<text x="536" y="575" fill="rgb(0,0,0)" font-family="Arial" font-size="12">31</text>
<text x="573" y="575" fill="rgb(0,0,0)" font-family="Arial" font-size="12">32</text>
<rect width="37" height="520" x="600" y="40" style="fill:rgb(230,230,230);stroke:none"/>
<text x="610" y="575" fill="rgb(0,0,0)" font-family="Arial" font-size="12">33</text>
<text x="647" y="575" fill="rgb(0,0,0)" font-family="Arial" font-size="12">34</text>
<rect width="37" height="520" x="674" y="40" style="fill:rgb(230,230,230);stroke:none"/>
<text x="684" y="575" fill="rgb(0,0,0)" font-family="Arial" font-size="12">35</text>
<text x="721" y="575" fill="rgb(0,0,0)" font-family="Arial" font-size="12">36</text>
<rect width="37" height="520" x="748" y="40" style="fill:rgb(230,230,230);stroke:none"/>
<text x="758" y="575" fill="rgb(0,0,0)" font-family="Arial" font-size="12">37</text>
<line x1="45" y1="560" x2="790" y2="560" stroke="rgb(180,180,180)" stroke-width="1"/>
<line x1="45" y1="475" x2="790" y2="475" stroke="rgb(180,180,180)" stroke-width="1"/>
<line x1="45" y1="389" x2="790" y2="389" stroke="rgb(180,180,180)" stroke-width="1"/>
<line x1="45" y1="304" x2="790" y2="304" stroke="rgb(180,180,180)" stroke-width="1"/>
<line x1="45" y1="218" x2="790" y2="218" stroke="rgb(180,180,180)" stroke-width="1"/>
<line x1="45" y1="133" x2="790" y2="133" stroke="rgb(180,180,180)" stroke-width="1"/>
<line x1="45" y1="47" x2="790" y2="47" stroke="rgb(180,180,180)" stroke-width="1"/>
<line x1="63" y1="560" x2="100" y2="558" stroke="rgb(136,34,85)" stroke-width="1"/>
<line x1="100" y1="558" x2="137" y2="552" stroke="rgb(136,34,85)" stroke-width="1"/>
<line x1="137" y1="552" x2="174" y2="547" stroke="rgb(136,34,85)" stroke-width="1"/>
<line x1="174" y1="547" x2="211" y2="539" stroke="rgb(136,34,85)" stroke-width="1"/>
<line x1="211" y1="539" x2="248" y2="534" stroke="rgb(136,34,85)" stroke-width="1"/>
<line x1="248" y1="534" x2="285" y2="523" stroke="rgb(136,34,85)" stroke-width="1"/>
<line x1="285" y1="523" x2="322" y2="519" stroke="rgb(136,34,85)" stroke-width="1"/>
<line x1="322" y1="519" x2="359" y2="511" stroke="rgb(136,34,85)" stroke-width="1"/>
<line x1="359" y1="511" x2="396" y2="502" stroke="rgb(136,34,85)" stroke-width="1"/>
<line x1="396" y1="502" x2="433" y2="493" stroke="rgb(136,34,85)" stroke-width="1"/>
<line x1="433" y1="493" x2="470" y2="476" stroke="rgb(136,34,85)" stroke-width="1"/>
<line x1="470" y1="476" x2="507" y2="459" stroke="rgb(136,34,85)" stroke-width="1"/>
<line x1="507" y1="459" x2="544" y2="431" stroke="rgb(136,34,85)" stroke-width="1"/>
<line x1="544" y1="431" x2="581" y2="391" stroke="rgb(136,34,85)" stroke-width="1"/>
<line x1="581" y1="391" x2="618" y2="322" stroke="rgb(136,34,85)" stroke-width="1"/>
<line x1="618" y1="322" x2="655" y2="207" stroke="rgb(136,34,85)" stroke-width="1"/>
<line x1="655" y1="207" x2="692" y2="40" stroke="rgb(136,34,85)" stroke-width="1"/>
<line x1="692" y1="40" x2="729" y2="156" stroke="rgb(136,34,85)" stroke-width="1"/>
<line x1="729" y1="156" x2="766" y2="555" stroke="rgb(136,34,85)" stroke-width="1"/>
<rect width="183" height="23" x="607" y="40" style="fill:rgb(255,255,255);stroke:none"/>
<rect width="183" height="23" x="607" y="40" rx="0" ry="0" style="fill:none;stroke-width:1;stroke:rgb(192,192,192)"/>
<text x="610" y="55" fill="rgb(136,34,85)" font-family="Arial" font-size="12" font-weight="bold">Average Quality per read</text>
</svg>
