<?xml version="1.0" standalone="no"?>
<!DOCTYPE svg PUBLIC "-//W3C//DTD SVG 1.1//EN" "http://www.w3.org/Graphics/SVG/1.1/DTD/svg11.dtd">
<svg width="1020" height="600" version="1.1" xmlns="http://www.w3.org/2000/svg">
<rect width="1020" height="600" x="0" y="0" style="fill:rgb(238,238,238);stroke:none"/>
<rect width="1020" height="600" x="0" y="0" style="fill:rgb(255,255,255);stroke:none"/>
<text x="2" y="566" fill="rgb(0,0,0)" font-family="Arial" font-size="12">0</text>
<text x="2" y="514" fill="rgb(0,0,0)" font-family="Arial" font-size="12">10</text>
<text x="2" y="462" fill="rgb(0,0,0)" font-family="Arial" font-size="12">20</text>
<text x="2" y="410" fill="rgb(0,0,0)" font-family="Arial" font-size="12">30</text>
<text x="2" y="358" fill="rgb(0,0,0)" font-family="Arial" font-size="12">40</text>
<text x="2" y="306" fill="rgb(0,0,0)" font-family="Arial" font-size="12">50</text>
<text x="2" y="254" fill="rgb(0,0,0)" font-family="Arial" font-size="12">60</text>
<text x="2" y="202" fill="rgb(0,0,0)" font-family="Arial" font-size="12">70</text>
<text x="2" y="150" fill="rgb(0,0,0)" font-family="Arial" font-size="12">80</text>
<text x="2" y="98" fill="rgb(0,0,0)" font-family="Arial" font-size="12">90</text>
<text x="2" y="46" fill="rgb(0,0,0)" font-family="Arial" font-size="12">100</text>
<text x="408" y="30" fill="rgb(0,0,0)" font-family="Arial" font-size="12">Sequence content across all bases</text>
<line x1="29" y1="560" x2="1010" y2="560" stroke="rgb(0,0,0)" stroke-width="1"/>
<line x1="29" y1="560" x2="29" y2="40" stroke="rgb(0,0,0)" stroke-width="1"/>
<text x="446" y="595" fill="rgb(0,0,0)" font-family="Arial" font-size="12">Position in read (bp)</text>
<text x="32" y="575" fill="rgb(0,0,0)" font-family="Arial" font-size="12">1</text>
<rect width="14" height="520" x="43" y="40" style="fill:rgb(230,230,230);stroke:none"/>
<text x="46" y="575" fill="rgb(0,0,0)" font-family="Arial" font-size="12">2</text>
<text x="60" y="575" fill="rgb(0,0,0)" font-family="Arial" font-size="12">3</text>
<rect width="14" height="520" x="71" y="40" style="fill:rgb(230,230,230);stroke:none"/>
<text x="74" y="575" fill="rgb(0,0,0)" font-family="Arial" font-size="12">4</text>
<text x="88" y="575" fill="rgb(0,0,0)" font-family="Arial" font-size="12">5</text>
<rect width="14" height="520" x="99" y="40" style="fill:rgb(230,230,230);stroke:none"/>
<text x="102" y="575" fill="rgb(0,0,0)" font-family="Arial" font-size="12">6</text>
<text x="116" y="575" fill="rgb(0,0,0)" font-family="Arial" font-size="12">7</text>
<rect width="14" height="520" x="127" y="40" style="fill:rgb(230,230,230);stroke:none"/>
<text x="130" y="575" fill="rgb(0,0,0)" font-family="Arial" font-size="12">8</text>
<text x="144" y="575" fill="rgb(0,0,0)" font-family="Arial" font-size="12">9</text>
<rect width="14" height="520" x="155" y="40" style="fill:rgb(230,230,230);stroke:none"/>
<text x="158" y="575" fill="rgb(0,0,0)" font-family="Arial" font-size="12">15-19</text>
<rect width="14" height="520" x="183" y="40" style="fill:rgb(230,230,230);stroke:none"/>
<rect width="14" height="520" x="211" y="40" style="fill:rgb(230,230,230);stroke:none"/>
<text x="200" y="575" fill="rgb(0,0,0)" font-family="Arial" font-size="12">30-34</text>
<rect width="14" height="520" x="239" y="40" style="fill:rgb(230,230,230);stroke:none"/>
<text x="242" y="575" fill="rgb(0,0,0)" font-family="Arial" font-size="12">45-49</text>
<rect width="14" height="520" x="267" y="40" style="fill:rgb(230,230,230);stroke:none"/>
<rect width="14" height="520" x="295" y="40" style="fill:rgb(230,230,230);stroke:none"/>
<text x="284" y="575" fill="rgb(0,0,0)" font-family="Arial" font-size="12">60-64</text>
<rect width="14" height="520" x="323" y="40" style="fill:rgb(230,230,230);stroke:none"/>
<text x="326" y="575" fill="rgb(0,0,0)" font-family="Arial" font-size="12">75-79</text>
<rect width="14" height="520" x="351" y="40" style="fill:rgb(230,230,230);stroke:none"/>
<rect width="14" height="520" x="379" y="40" style="fill:rgb(230,230,230);stroke:none"/>
<text x="368" y="575" fill="rgb(0,0,0)" font-family="Arial" font-size="12">90-94</text>
<rect width="14" height="520" x="407" y="40" style="fill:rgb(230,230,230);stroke:none"/>
<rect width="14" height="520" x="435" y="40" style="fill:rgb(230,230,230);stroke:none"/>
<text x="416" y="575" fill="rgb(0,0,0)" font-family="Arial" font-size="12">110-114</text>
<rect width="14" height="520" x="463" y="40" style="fill:rgb(230,230,230);stroke:none"/>
<rect width="14" height="520" x="491" y="40" style="fill:rgb(230,230,230);stroke:none"/>
<text x="486" y="575" fill="rgb(0,0,0)" font-family="Arial" font-size="12">135-139</text>
<rect width="14" height="520" x="519" y="40" style="fill:rgb(230,230,230);stroke:none"/>
<rect width="14" height="520" x="547" y="40" style="fill:rgb(230,230,230);stroke:none"/>
<rect width="14" height="520" x="575" y="40" style="fill:rgb(230,230,230);stroke:none"/>
<text x="556" y="575" fill="rgb(0,0,0)" font-family="Arial" font-size="12">160-164</text>
<rect width="14" height="520" x="603" y="40" style="fill:rgb(230,230,230);stroke:none"/>
<rect width="14" height="520" x="631" y="40" style="fill:rgb(230,230,230);stroke:none"/>
<text x="626" y="575" fill="rgb(0,0,0)" font-family="Arial" font-size="12">185-189</text>
<rect width="14" height="520" x="659" y="40" style="fill:rgb(230,230,230);stroke:none"/>
<rect width="14" height="520" x="687" y="40" style="fill:rgb(230,230,230);stroke:none"/>
<rect width="14" height="520" x="715" y="40" style="fill:rgb(230,230,230);stroke:none"/>
<text x="696" y="575" fill="rgb(0,0,0)" font-family="Arial" font-size="12">210-214</text>
<rect width="14" height="520" x="743" y="40" style="fill:rgb(230,230,230);stroke:none"/>
<rect width="14" height="520" x="771" y="40" style="fill:rgb(230,230,230);stroke:none"/>
<text x="766" y="575" fill="rgb(0,0,0)" font-family="Arial" font-size="12">235-239</text>
<rect width="14" height="520" x="799" y="40" style="fill:rgb(230,230,230);stroke:none"/>
<rect width="14" height="520" x="827" y="40" style="fill:rgb(230,230,230);stroke:none"/>
<rect width="14" height="520" x="855" y="40" style="fill:rgb(230,230,230);stroke:none"/>
<text x="836" y="575" fill="rgb(0,0,0)" font-family="Arial" font-size="12">260-264</text>
<rect width="14" height="520" x="883" y="40" style="fill:rgb(230,230,230);stroke:none"/>
<rect width="14" height="520" x="911" y="40" style="fill:rgb(230,230,230);stroke:none"/>
<text x="906" y="575" fill="rgb(0,0,0)" font-family="Arial" font-size="12">285-289</text>
<rect width="14" height="520" x="939" y="40" style="fill:rgb(230,230,230);stroke:none"/>
<rect width="14" height="520" x="967" y="40" style="fill:rgb(230,230,230);stroke:none"/>
<line x1="29" y1="560" x2="1010" y2="560" stroke="rgb(180,180,180)" stroke-width="1"/>
<line x1="29" y1="508" x2="1010" y2="508" stroke="rgb(180,180,180)" stroke-width="1"/>
<line x1="29" y1="456" x2="1010" y2="456" stroke="rgb(180,180,180)" stroke-width="1"/>
<line x1="29" y1="404" x2="1010" y2="404" stroke="rgb(180,180,180)" stroke-width="1"/>
<line x1="29" y1="352" x2="1010" y2="352" stroke="rgb(180,180,180)" stroke-width="1"/>
<line x1="29" y1="300" x2="1010" y2="300" stroke="rgb(180,180,180)" stroke-width="1"/>
<line x1="29" y1="248" x2="1010" y2="248" stroke="rgb(180,180,180)" stroke-width="1"/>
<line x1="29" y1="196" x2="1010" y2="196" stroke="rgb(180,180,180)" stroke-width="1"/>
<line x1="29" y1="144" x2="1010" y2="144" stroke="rgb(180,180,180)" stroke-width="1"/>
<line x1="29" y1="92" x2="1010" y2="92" stroke="rgb(180,180,180)" stroke-width="1"/>
<line x1="29" y1="40" x2="1010" y2="40" stroke="rgb(180,180,180)" stroke-width="1"/>
<line x1="36" y1="40" x2="50" y2="40" stroke="rgb(136,34,85)" stroke-width="1"/>
<line x1="50" y1="40" x2="64" y2="560" stroke="rgb(136,34,85)" stroke-width="1"/>
<line x1="64" y1="560" x2="78" y2="560" stroke="rgb(136,34,85)" stroke-width="1"/>
<line x1="78" y1="560" x2="92" y2="560" stroke="rgb(136,34,85)" stroke-width="1"/>
<line x1="92" y1="560" x2="106" y2="560" stroke="rgb(136,34,85)" stroke-width="1"/>
<line x1="106" y1="560" x2="120" y2="560" stroke="rgb(136,34,85)" stroke-width="1"/>
<line x1="120" y1="560" x2="134" y2="560" stroke="rgb(136,34,85)" stroke-width="1"/>
<line x1="134" y1="560" x2="148" y2="560" stroke="rgb(136,34,85)" stroke-width="1"/>
<line x1="148" y1="560" x2="162" y2="353" stroke="rgb(136,34,85)" stroke-width="1"/>
<line x1="162" y1="353" x2="176" y2="249" stroke="rgb(136,34,85)" stroke-width="1"/>
<line x1="176" y1="249" x2="190" y2="352" stroke="rgb(136,34,85)" stroke-width="1"/>
<line x1="190" y1="352" x2="204" y2="282" stroke="rgb(136,34,85)" stroke-width="1"/>
<line x1="204" y1="282" x2="218" y2="292" stroke="rgb(136,34,85)" stroke-width="1"/>
<line x1="218" y1="292" x2="232" y2="550" stroke="rgb(136,34,85)" stroke-width="1"/>
<line x1="232" y1="550" x2="246" y2="353" stroke="rgb(136,34,85)" stroke-width="1"/>
<line x1="246" y1="353" x2="260" y2="554" stroke="rgb(136,34,85)" stroke-width="1"/>
<line x1="260" y1="554" x2="274" y2="532" stroke="rgb(136,34,85)" stroke-width="1"/>
<line x1="274" y1="532" x2="288" y2="461" stroke="rgb(136,34,85)" stroke-width="1"/>
<line x1="288" y1="461" x2="302" y2="294" stroke="rgb(136,34,85)" stroke-width="1"/>
<line x1="302" y1="294" x2="316" y2="324" stroke="rgb(136,34,85)" stroke-width="1"/>
<line x1="316" y1="324" x2="330" y2="403" stroke="rgb(136,34,85)" stroke-width="1"/>
<line x1="330" y1="403" x2="344" y2="468" stroke="rgb(136,34,85)" stroke-width="1"/>
<line x1="344" y1="468" x2="358" y2="484" stroke="rgb(136,34,85)" stroke-width="1"/>
<line x1="358" y1="484" x2="372" y2="434" stroke="rgb(136,34,85)" stroke-width="1"/>
<line x1="372" y1="434" x2="386" y2="428" stroke="rgb(136,34,85)" stroke-width="1"/>
<line x1="386" y1="428" x2="400" y2="545" stroke="rgb(136,34,85)" stroke-width="1"/>
<line x1="400" y1="545" x2="414" y2="502" stroke="rgb(136,34,85)" stroke-width="1"/>
<line x1="414" y1="502" x2="428" y2="411" stroke="rgb(136,34,85)" stroke-width="1"/>
<line x1="428" y1="411" x2="442" y2="425" stroke="rgb(136,34,85)" stroke-width="1"/>
<line x1="442" y1="425" x2="456" y2="268" stroke="rgb(136,34,85)" stroke-width="1"/>
<line x1="456" y1="268" x2="470" y2="494" stroke="rgb(136,34,85)" stroke-width="1"/>
<line x1="470" y1="494" x2="484" y2="457" stroke="rgb(136,34,85)" stroke-width="1"/>
<line x1="484" y1="457" x2="498" y2="483" stroke="rgb(136,34,85)" stroke-width="1"/>
<line x1="498" y1="483" x2="512" y2="460" stroke="rgb(136,34,85)" stroke-width="1"/>
<line x1="512" y1="460" x2="526" y2="325" stroke="rgb(136,34,85)" stroke-width="1"/>
<line x1="526" y1="325" x2="540" y2="372" stroke="rgb(136,34,85)" stroke-width="1"/>
<line x1="540" y1="372" x2="554" y2="256" stroke="rgb(136,34,85)" stroke-width="1"/>
<line x1="554" y1="256" x2="568" y2="481" stroke="rgb(136,34,85)" stroke-width="1"/>
<line x1="568" y1="481" x2="582" y2="449" stroke="rgb(136,34,85)" stroke-width="1"/>
<line x1="582" y1="449" x2="596" y2="315" stroke="rgb(136,34,85)" stroke-width="1"/>
<line x1="596" y1="315" x2="610" y2="457" stroke="rgb(136,34,85)" stroke-width="1"/>
<line x1="610" y1="457" x2="624" y2="436" stroke="rgb(136,34,85)" stroke-width="1"/>
<line x1="624" y1="436" x2="638" y2="422" stroke="rgb(136,34,85)" stroke-width="1"/>
<line x1="638" y1="422" x2="652" y2="401" stroke="rgb(136,34,85)" stroke-width="1"/>
<line x1="652" y1="401" x2="666" y2="469" stroke="rgb(136,34,85)" stroke-width="1"/>
<line x1="666" y1="469" x2="680" y2="498" stroke="rgb(136,34,85)" stroke-width="1"/>
<line x1="680" y1="498" x2="694" y2="391" stroke="rgb(136,34,85)" stroke-width="1"/>
<line x1="694" y1="391" x2="708" y2="457" stroke="rgb(136,34,85)" stroke-width="1"/>
<line x1="708" y1="457" x2="722" y2="425" stroke="rgb(136,34,85)" stroke-width="1"/>
<line x1="722" y1="425" x2="736" y2="287" stroke="rgb(136,34,85)" stroke-width="1"/>
<line x1="736" y1="287" x2="750" y2="437" stroke="rgb(136,34,85)" stroke-width="1"/>
<line x1="750" y1="437" x2="764" y2="360" stroke="rgb(136,34,85)" stroke-width="1"/>
<line x1="764" y1="360" x2="778" y2="424" stroke="rgb(136,34,85)" stroke-width="1"/>
<line x1="778" y1="424" x2="792" y2="300" stroke="rgb(136,34,85)" stroke-width="1"/>
<line x1="792" y1="300" x2="806" y2="439" stroke="rgb(136,34,85)" stroke-width="1"/>
<line x1="806" y1="439" x2="820" y2="461" stroke="rgb(136,34,85)" stroke-width="1"/>
<line x1="820" y1="461" x2="834" y2="489" stroke="rgb(136,34,85)" stroke-width="1"/>
<line x1="834" y1="489" x2="848" y2="365" stroke="rgb(136,34,85)" stroke-width="1"/>
<line x1="848" y1="365" x2="862" y2="461" stroke="rgb(136,34,85)" stroke-width="1"/>
<line x1="862" y1="461" x2="876" y2="389" stroke="rgb(136,34,85)" stroke-width="1"/>
<line x1="876" y1="389" x2="890" y2="441" stroke="rgb(136,34,85)" stroke-width="1"/>
<line x1="890" y1="441" x2="904" y2="433" stroke="rgb(136,34,85)" stroke-width="1"/>
<line x1="904" y1="433" x2="918" y2="459" stroke="rgb(136,34,85)" stroke-width="1"/>
<line x1="918" y1="459" x2="932" y2="478" stroke="rgb(136,34,85)" stroke-width="1"/>
<line x1="932" y1="478" x2="946" y2="389" stroke="rgb(136,34,85)" stroke-width="1"/>
<line x1="946" y1="389" x2="960" y2="461" stroke="rgb(136,34,85)" stroke-width="1"/>
<line x1="960" y1="461" x2="974" y2="394" stroke="rgb(136,34,85)" stroke-width="1"/>
<line x1="36" y1="560" x2="50" y2="560" stroke="rgb(51,34,136)" stroke-width="1"/>
<line x1="50" y1="560" x2="64" y2="560" stroke="rgb(51,34,136)" stroke-width="1"/>
<line x1="64" y1="560" x2="78" y2="560" stroke="rgb(51,34,136)" stroke-width="1"/>
<line x1="78" y1="560" x2="92" y2="560" stroke="rgb(51,34,136)" stroke-width="1"/>
<line x1="92" y1="560" x2="106" y2="40" stroke="rgb(51,34,136)" stroke-width="1"/>
<line x1="106" y1="40" x2="120" y2="42" stroke="rgb(51,34,136)" stroke-width="1"/>
<line x1="120" y1="42" x2="134" y2="42" stroke="rgb(51,34,136)" stroke-width="1"/>
<line x1="134" y1="42" x2="148" y2="560" stroke="rgb(51,34,136)" stroke-width="1"/>
<line x1="148" y1="560" x2="162" y2="456" stroke="rgb(51,34,136)" stroke-width="1"/>
<line x1="162" y1="456" x2="176" y2="403" stroke="rgb(51,34,136)" stroke-width="1"/>
<line x1="176" y1="403" x2="190" y2="560" stroke="rgb(51,34,136)" stroke-width="1"/>
<line x1="190" y1="560" x2="204" y2="505" stroke="rgb(51,34,136)" stroke-width="1"/>
<line x1="204" y1="505" x2="218" y2="413" stroke="rgb(51,34,136)" stroke-width="1"/>
<line x1="218" y1="413" x2="232" y2="277" stroke="rgb(51,34,136)" stroke-width="1"/>
<line x1="232" y1="277" x2="246" y2="457" stroke="rgb(51,34,136)" stroke-width="1"/>
<line x1="246" y1="457" x2="260" y2="151" stroke="rgb(51,34,136)" stroke-width="1"/>
<line x1="260" y1="151" x2="274" y2="484" stroke="rgb(51,34,136)" stroke-width="1"/>
<line x1="274" y1="484" x2="288" y2="401" stroke="rgb(51,34,136)" stroke-width="1"/>
<line x1="288" y1="401" x2="302" y2="478" stroke="rgb(51,34,136)" stroke-width="1"/>
<line x1="302" y1="478" x2="316" y2="456" stroke="rgb(51,34,136)" stroke-width="1"/>
<line x1="316" y1="456" x2="330" y2="423" stroke="rgb(51,34,136)" stroke-width="1"/>
<line x1="330" y1="423" x2="344" y2="389" stroke="rgb(51,34,136)" stroke-width="1"/>
<line x1="344" y1="389" x2="358" y2="400" stroke="rgb(51,34,136)" stroke-width="1"/>
<line x1="358" y1="400" x2="372" y2="454" stroke="rgb(51,34,136)" stroke-width="1"/>
<line x1="372" y1="454" x2="386" y2="439" stroke="rgb(51,34,136)" stroke-width="1"/>
<line x1="386" y1="439" x2="400" y2="285" stroke="rgb(51,34,136)" stroke-width="1"/>
<line x1="400" y1="285" x2="414" y2="385" stroke="rgb(51,34,136)" stroke-width="1"/>
<line x1="414" y1="385" x2="428" y2="460" stroke="rgb(51,34,136)" stroke-width="1"/>
<line x1="428" y1="460" x2="442" y2="365" stroke="rgb(51,34,136)" stroke-width="1"/>
<line x1="442" y1="365" x2="456" y2="500" stroke="rgb(51,34,136)" stroke-width="1"/>
<line x1="456" y1="500" x2="470" y2="450" stroke="rgb(51,34,136)" stroke-width="1"/>
<line x1="470" y1="450" x2="484" y2="457" stroke="rgb(51,34,136)" stroke-width="1"/>
<line x1="484" y1="457" x2="498" y2="355" stroke="rgb(51,34,136)" stroke-width="1"/>
<line x1="498" y1="355" x2="512" y2="513" stroke="rgb(51,34,136)" stroke-width="1"/>
<line x1="512" y1="513" x2="526" y2="453" stroke="rgb(51,34,136)" stroke-width="1"/>
<line x1="526" y1="453" x2="540" y2="365" stroke="rgb(51,34,136)" stroke-width="1"/>
<line x1="540" y1="365" x2="554" y2="460" stroke="rgb(51,34,136)" stroke-width="1"/>
<line x1="554" y1="460" x2="568" y2="186" stroke="rgb(51,34,136)" stroke-width="1"/>
<line x1="568" y1="186" x2="582" y2="328" stroke="rgb(51,34,136)" stroke-width="1"/>
<line x1="582" y1="328" x2="596" y2="373" stroke="rgb(51,34,136)" stroke-width="1"/>
<line x1="596" y1="373" x2="610" y2="337" stroke="rgb(51,34,136)" stroke-width="1"/>
<line x1="610" y1="337" x2="624" y2="421" stroke="rgb(51,34,136)" stroke-width="1"/>
<line x1="624" y1="421" x2="638" y2="470" stroke="rgb(51,34,136)" stroke-width="1"/>
<line x1="638" y1="470" x2="652" y2="450" stroke="rgb(51,34,136)" stroke-width="1"/>
<line x1="652" y1="450" x2="666" y2="389" stroke="rgb(51,34,136)" stroke-width="1"/>
<line x1="666" y1="389" x2="680" y2="420" stroke="rgb(51,34,136)" stroke-width="1"/>
<line x1="680" y1="420" x2="694" y2="298" stroke="rgb(51,34,136)" stroke-width="1"/>
<line x1="694" y1="298" x2="708" y2="328" stroke="rgb(51,34,136)" stroke-width="1"/>
<line x1="708" y1="328" x2="722" y2="427" stroke="rgb(51,34,136)" stroke-width="1"/>
<line x1="722" y1="427" x2="736" y2="452" stroke="rgb(51,34,136)" stroke-width="1"/>
<line x1="736" y1="452" x2="750" y2="322" stroke="rgb(51,34,136)" stroke-width="1"/>
<line x1="750" y1="322" x2="764" y2="434" stroke="rgb(51,34,136)" stroke-width="1"/>
<line x1="764" y1="434" x2="778" y2="405" stroke="rgb(51,34,136)" stroke-width="1"/>
<line x1="778" y1="405" x2="792" y2="437" stroke="rgb(51,34,136)" stroke-width="1"/>
<line x1="792" y1="437" x2="806" y2="293" stroke="rgb(51,34,136)" stroke-width="1"/>
<line x1="806" y1="293" x2="820" y2="353" stroke="rgb(51,34,136)" stroke-width="1"/>
<line x1="820" y1="353" x2="834" y2="401" stroke="rgb(51,34,136)" stroke-width="1"/>
<line x1="834" y1="401" x2="848" y2="408" stroke="rgb(51,34,136)" stroke-width="1"/>
<line x1="848" y1="408" x2="862" y2="295" stroke="rgb(51,34,136)" stroke-width="1"/>
<line x1="862" y1="295" x2="876" y2="294" stroke="rgb(51,34,136)" stroke-width="1"/>
<line x1="876" y1="294" x2="890" y2="328" stroke="rgb(51,34,136)" stroke-width="1"/>
<line x1="890" y1="328" x2="904" y2="353" stroke="rgb(51,34,136)" stroke-width="1"/>
<line x1="904" y1="353" x2="918" y2="403" stroke="rgb(51,34,136)" stroke-width="1"/>
<line x1="918" y1="403" x2="932" y2="355" stroke="rgb(51,34,136)" stroke-width="1"/>
<line x1="932" y1="355" x2="946" y2="450" stroke="rgb(51,34,136)" stroke-width="1"/>
<line x1="946" y1="450" x2="960" y2="427" stroke="rgb(51,34,136)" stroke-width="1"/>
<line x1="960" y1="427" x2="974" y2="440" stroke="rgb(51,34,136)" stroke-width="1"/>
<line x1="36" y1="560" x2="50" y2="560" stroke="rgb(17,119,51)" stroke-width="1"/>
<line x1="50" y1="560" x2="64" y2="40" stroke="rgb(17,119,51)" stroke-width="1"/>
<line x1="64" y1="40" x2="78" y2="560" stroke="rgb(17,119,51)" stroke-width="1"/>
<line x1="78" y1="560" x2="92" y2="560" stroke="rgb(17,119,51)" stroke-width="1"/>
<line x1="92" y1="560" x2="106" y2="560" stroke="rgb(17,119,51)" stroke-width="1"/>
<line x1="106" y1="560" x2="120" y2="560" stroke="rgb(17,119,51)" stroke-width="1"/>
<line x1="120" y1="560" x2="134" y2="560" stroke="rgb(17,119,51)" stroke-width="1"/>
<line x1="134" y1="560" x2="148" y2="559" stroke="rgb(17,119,51)" stroke-width="1"/>
<line x1="148" y1="559" x2="162" y2="353" stroke="rgb(17,119,51)" stroke-width="1"/>
<line x1="162" y1="353" x2="176" y2="510" stroke="rgb(17,119,51)" stroke-width="1"/>
<line x1="176" y1="510" x2="190" y2="399" stroke="rgb(17,119,51)" stroke-width="1"/>
<line x1="190" y1="399" x2="204" y2="402" stroke="rgb(17,119,51)" stroke-width="1"/>
<line x1="204" y1="402" x2="218" y2="560" stroke="rgb(17,119,51)" stroke-width="1"/>
<line x1="218" y1="560" x2="232" y2="482" stroke="rgb(17,119,51)" stroke-width="1"/>
<line x1="232" y1="482" x2="246" y2="456" stroke="rgb(17,119,51)" stroke-width="1"/>
<line x1="246" y1="456" x2="260" y2="457" stroke="rgb(17,119,51)" stroke-width="1"/>
<line x1="260" y1="457" x2="274" y2="560" stroke="rgb(17,119,51)" stroke-width="1"/>
<line x1="274" y1="560" x2="288" y2="375" stroke="rgb(17,119,51)" stroke-width="1"/>
<line x1="288" y1="375" x2="302" y2="390" stroke="rgb(17,119,51)" stroke-width="1"/>
<line x1="302" y1="390" x2="316" y2="542" stroke="rgb(17,119,51)" stroke-width="1"/>
<line x1="316" y1="542" x2="330" y2="476" stroke="rgb(17,119,51)" stroke-width="1"/>
<line x1="330" y1="476" x2="344" y2="447" stroke="rgb(17,119,51)" stroke-width="1"/>
<line x1="344" y1="447" x2="358" y2="420" stroke="rgb(17,119,51)" stroke-width="1"/>
<line x1="358" y1="420" x2="372" y2="418" stroke="rgb(17,119,51)" stroke-width="1"/>
<line x1="372" y1="418" x2="386" y2="397" stroke="rgb(17,119,51)" stroke-width="1"/>
<line x1="386" y1="397" x2="400" y2="378" stroke="rgb(17,119,51)" stroke-width="1"/>
<line x1="400" y1="378" x2="414" y2="373" stroke="rgb(17,119,51)" stroke-width="1"/>
<line x1="414" y1="373" x2="428" y2="412" stroke="rgb(17,119,51)" stroke-width="1"/>
<line x1="428" y1="412" x2="442" y2="429" stroke="rgb(17,119,51)" stroke-width="1"/>
<line x1="442" y1="429" x2="456" y2="486" stroke="rgb(17,119,51)" stroke-width="1"/>
<line x1="456" y1="486" x2="470" y2="523" stroke="rgb(17,119,51)" stroke-width="1"/>
<line x1="470" y1="523" x2="484" y2="475" stroke="rgb(17,119,51)" stroke-width="1"/>
<line x1="484" y1="475" x2="498" y2="368" stroke="rgb(17,119,51)" stroke-width="1"/>
<line x1="498" y1="368" x2="512" y2="459" stroke="rgb(17,119,51)" stroke-width="1"/>
<line x1="512" y1="459" x2="526" y2="388" stroke="rgb(17,119,51)" stroke-width="1"/>
<line x1="526" y1="388" x2="540" y2="495" stroke="rgb(17,119,51)" stroke-width="1"/>
<line x1="540" y1="495" x2="554" y2="552" stroke="rgb(17,119,51)" stroke-width="1"/>
<line x1="554" y1="552" x2="568" y2="527" stroke="rgb(17,119,51)" stroke-width="1"/>
<line x1="568" y1="527" x2="582" y2="484" stroke="rgb(17,119,51)" stroke-width="1"/>
<line x1="582" y1="484" x2="596" y2="559" stroke="rgb(17,119,51)" stroke-width="1"/>
<line x1="596" y1="559" x2="610" y2="469" stroke="rgb(17,119,51)" stroke-width="1"/>
<line x1="610" y1="469" x2="624" y2="473" stroke="rgb(17,119,51)" stroke-width="1"/>
<line x1="624" y1="473" x2="638" y2="419" stroke="rgb(17,119,51)" stroke-width="1"/>
<line x1="638" y1="419" x2="652" y2="453" stroke="rgb(17,119,51)" stroke-width="1"/>
<line x1="652" y1="453" x2="666" y2="426" stroke="rgb(17,119,51)" stroke-width="1"/>
<line x1="666" y1="426" x2="680" y2="461" stroke="rgb(17,119,51)" stroke-width="1"/>
<line x1="680" y1="461" x2="694" y2="555" stroke="rgb(17,119,51)" stroke-width="1"/>
<line x1="694" y1="555" x2="708" y2="470" stroke="rgb(17,119,51)" stroke-width="1"/>
<line x1="708" y1="470" x2="722" y2="512" stroke="rgb(17,119,51)" stroke-width="1"/>
<line x1="722" y1="512" x2="736" y2="533" stroke="rgb(17,119,51)" stroke-width="1"/>
<line x1="736" y1="533" x2="750" y2="469" stroke="rgb(17,119,51)" stroke-width="1"/>
<line x1="750" y1="469" x2="764" y2="398" stroke="rgb(17,119,51)" stroke-width="1"/>
<line x1="764" y1="398" x2="778" y2="406" stroke="rgb(17,119,51)" stroke-width="1"/>
<line x1="778" y1="406" x2="792" y2="457" stroke="rgb(17,119,51)" stroke-width="1"/>
<line x1="792" y1="457" x2="806" y2="473" stroke="rgb(17,119,51)" stroke-width="1"/>
<line x1="806" y1="473" x2="820" y2="391" stroke="rgb(17,119,51)" stroke-width="1"/>
<line x1="820" y1="391" x2="834" y2="419" stroke="rgb(17,119,51)" stroke-width="1"/>
<line x1="834" y1="419" x2="848" y2="437" stroke="rgb(17,119,51)" stroke-width="1"/>
<line x1="848" y1="437" x2="862" y2="432" stroke="rgb(17,119,51)" stroke-width="1"/>
<line x1="862" y1="432" x2="876" y2="490" stroke="rgb(17,119,51)" stroke-width="1"/>
<line x1="876" y1="490" x2="890" y2="457" stroke="rgb(17,119,51)" stroke-width="1"/>
<line x1="890" y1="457" x2="904" y2="413" stroke="rgb(17,119,51)" stroke-width="1"/>
<line x1="904" y1="413" x2="918" y2="401" stroke="rgb(17,119,51)" stroke-width="1"/>
<line x1="918" y1="401" x2="932" y2="452" stroke="rgb(17,119,51)" stroke-width="1"/>
<line x1="932" y1="452" x2="946" y2="365" stroke="rgb(17,119,51)" stroke-width="1"/>
<line x1="946" y1="365" x2="960" y2="408" stroke="rgb(17,119,51)" stroke-width="1"/>
<line x1="960" y1="408" x2="974" y2="457" stroke="rgb(17,119,51)" stroke-width="1"/>
<line x1="36" y1="560" x2="50" y2="560" stroke="rgb(221,204,119)" stroke-width="1"/>
<line x1="50" y1="560" x2="64" y2="560" stroke="rgb(221,204,119)" stroke-width="1"/>
<line x1="64" y1="560" x2="78" y2="40" stroke="rgb(221,204,119)" stroke-width="1"/>
<line x1="78" y1="40" x2="92" y2="40" stroke="rgb(221,204,119)" stroke-width="1"/>
<line x1="92" y1="40" x2="106" y2="560" stroke="rgb(221,204,119)" stroke-width="1"/>
<line x1="106" y1="560" x2="120" y2="560" stroke="rgb(221,204,119)" stroke-width="1"/>
<line x1="120" y1="560" x2="134" y2="560" stroke="rgb(221,204,119)" stroke-width="1"/>
<line x1="134" y1="560" x2="148" y2="42" stroke="rgb(221,204,119)" stroke-width="1"/>
<line x1="148" y1="42" x2="162" y2="560" stroke="rgb(221,204,119)" stroke-width="1"/>
<line x1="162" y1="560" x2="176" y2="560" stroke="rgb(221,204,119)" stroke-width="1"/>
<line x1="176" y1="560" x2="190" y2="411" stroke="rgb(221,204,119)" stroke-width="1"/>
<line x1="190" y1="411" x2="204" y2="534" stroke="rgb(221,204,119)" stroke-width="1"/>
<line x1="204" y1="534" x2="218" y2="457" stroke="rgb(221,204,119)" stroke-width="1"/>
<line x1="218" y1="457" x2="232" y2="414" stroke="rgb(221,204,119)" stroke-width="1"/>
<line x1="232" y1="414" x2="246" y2="456" stroke="rgb(221,204,119)" stroke-width="1"/>
<line x1="246" y1="456" x2="260" y2="560" stroke="rgb(221,204,119)" stroke-width="1"/>
<line x1="260" y1="560" x2="274" y2="146" stroke="rgb(221,204,119)" stroke-width="1"/>
<line x1="274" y1="146" x2="288" y2="485" stroke="rgb(221,204,119)" stroke-width="1"/>
<line x1="288" y1="485" x2="302" y2="559" stroke="rgb(221,204,119)" stroke-width="1"/>
<line x1="302" y1="559" x2="316" y2="399" stroke="rgb(221,204,119)" stroke-width="1"/>
<line x1="316" y1="399" x2="330" y2="419" stroke="rgb(221,204,119)" stroke-width="1"/>
<line x1="330" y1="419" x2="344" y2="418" stroke="rgb(221,204,119)" stroke-width="1"/>
<line x1="344" y1="418" x2="358" y2="417" stroke="rgb(221,204,119)" stroke-width="1"/>
<line x1="358" y1="417" x2="372" y2="415" stroke="rgb(221,204,119)" stroke-width="1"/>
<line x1="372" y1="415" x2="386" y2="458" stroke="rgb(221,204,119)" stroke-width="1"/>
<line x1="386" y1="458" x2="400" y2="513" stroke="rgb(221,204,119)" stroke-width="1"/>
<line x1="400" y1="513" x2="414" y2="461" stroke="rgb(221,204,119)" stroke-width="1"/>
<line x1="414" y1="461" x2="428" y2="439" stroke="rgb(221,204,119)" stroke-width="1"/>
<line x1="428" y1="439" x2="442" y2="503" stroke="rgb(221,204,119)" stroke-width="1"/>
<line x1="442" y1="503" x2="456" y2="468" stroke="rgb(221,204,119)" stroke-width="1"/>
<line x1="456" y1="468" x2="470" y2="255" stroke="rgb(221,204,119)" stroke-width="1"/>
<line x1="470" y1="255" x2="484" y2="333" stroke="rgb(221,204,119)" stroke-width="1"/>
<line x1="484" y1="333" x2="498" y2="517" stroke="rgb(221,204,119)" stroke-width="1"/>
<line x1="498" y1="517" x2="512" y2="290" stroke="rgb(221,204,119)" stroke-width="1"/>
<line x1="512" y1="290" x2="526" y2="557" stroke="rgb(221,204,119)" stroke-width="1"/>
<line x1="526" y1="557" x2="540" y2="490" stroke="rgb(221,204,119)" stroke-width="1"/>
<line x1="540" y1="490" x2="554" y2="454" stroke="rgb(221,204,119)" stroke-width="1"/>
<line x1="554" y1="454" x2="568" y2="528" stroke="rgb(221,204,119)" stroke-width="1"/>
<line x1="568" y1="528" x2="582" y2="460" stroke="rgb(221,204,119)" stroke-width="1"/>
<line x1="582" y1="460" x2="596" y2="475" stroke="rgb(221,204,119)" stroke-width="1"/>
<line x1="596" y1="475" x2="610" y2="459" stroke="rgb(221,204,119)" stroke-width="1"/>
<line x1="610" y1="459" x2="624" y2="392" stroke="rgb(221,204,119)" stroke-width="1"/>
<line x1="624" y1="392" x2="638" y2="411" stroke="rgb(221,204,119)" stroke-width="1"/>
<line x1="638" y1="411" x2="652" y2="418" stroke="rgb(221,204,119)" stroke-width="1"/>
<line x1="652" y1="418" x2="666" y2="438" stroke="rgb(221,204,119)" stroke-width="1"/>
<line x1="666" y1="438" x2="680" y2="343" stroke="rgb(221,204,119)" stroke-width="1"/>
<line x1="680" y1="343" x2="694" y2="477" stroke="rgb(221,204,119)" stroke-width="1"/>
<line x1="694" y1="477" x2="708" y2="468" stroke="rgb(221,204,119)" stroke-width="1"/>
<line x1="708" y1="468" x2="722" y2="358" stroke="rgb(221,204,119)" stroke-width="1"/>
<line x1="722" y1="358" x2="736" y2="450" stroke="rgb(221,204,119)" stroke-width="1"/>
<line x1="736" y1="450" x2="750" y2="494" stroke="rgb(221,204,119)" stroke-width="1"/>
<line x1="750" y1="494" x2="764" y2="529" stroke="rgb(221,204,119)" stroke-width="1"/>
<line x1="764" y1="529" x2="778" y2="486" stroke="rgb(221,204,119)" stroke-width="1"/>
<line x1="778" y1="486" x2="792" y2="528" stroke="rgb(221,204,119)" stroke-width="1"/>
<line x1="792" y1="528" x2="806" y2="516" stroke="rgb(221,204,119)" stroke-width="1"/>
<line x1="806" y1="516" x2="820" y2="518" stroke="rgb(221,204,119)" stroke-width="1"/>
<line x1="820" y1="518" x2="834" y2="413" stroke="rgb(221,204,119)" stroke-width="1"/>
<line x1="834" y1="413" x2="848" y2="511" stroke="rgb(221,204,119)" stroke-width="1"/>
<line x1="848" y1="511" x2="862" y2="533" stroke="rgb(221,204,119)" stroke-width="1"/>
<line x1="862" y1="533" x2="876" y2="550" stroke="rgb(221,204,119)" stroke-width="1"/>
<line x1="876" y1="550" x2="890" y2="496" stroke="rgb(221,204,119)" stroke-width="1"/>
<line x1="890" y1="496" x2="904" y2="523" stroke="rgb(221,204,119)" stroke-width="1"/>
<line x1="904" y1="523" x2="918" y2="459" stroke="rgb(221,204,119)" stroke-width="1"/>
<line x1="918" y1="459" x2="932" y2="438" stroke="rgb(221,204,119)" stroke-width="1"/>
<line x1="932" y1="438" x2="946" y2="518" stroke="rgb(221,204,119)" stroke-width="1"/>
<line x1="946" y1="518" x2="960" y2="426" stroke="rgb(221,204,119)" stroke-width="1"/>
<line x1="960" y1="426" x2="974" y2="431" stroke="rgb(221,204,119)" stroke-width="1"/>
<rect width="28" height="83" x="982" y="40" style="fill:rgb(255,255,255);stroke:none"/>
<rect width="28" height="83" x="982" y="40" rx="0" ry="0" style="fill:none;stroke-width:1;stroke:rgb(192,192,192)"/>
<text x="985" y="55" fill="rgb(136,34,85)" font-family="Arial" font-size="12" font-weight="bold">%T</text>
<text x="985" y="75" fill="rgb(51,34,136)" font-family="Arial" font-size="12" font-weight="bold">%C</text>
<text x="985" y="95" fill="rgb(17,119,51)" font-family="Arial" font-size="12" font-weight="bold">%A</text>
<text x="985" y="115" fill="rgb(221,204,119)" font-family="Arial" font-size="12" font-weight="bold">%G</text>
</svg>
