<?xml version="1.0" standalone="no"?>
<!DOCTYPE svg PUBLIC "-//W3C//DTD SVG 1.1//EN" "http://www.w3.org/Graphics/SVG/1.1/DTD/svg11.dtd">
<svg width="800" height="600" version="1.1" xmlns="http://www.w3.org/2000/svg">
<rect width="800" height="600" x="0" y="0" style="fill:rgb(238,238,238);stroke:none"/>
<rect width="800" height="600" x="0" y="0" style="fill:rgb(255,255,255);stroke:none"/>
<text x="2" y="566" fill="rgb(0,0,0)" font-family="Arial" font-size="12">0</text>
<text x="2" y="510" fill="rgb(0,0,0)" font-family="Arial" font-size="12">500</text>
<text x="2" y="454" fill="rgb(0,0,0)" font-family="Arial" font-size="12">1000</text>
<text x="2" y="398" fill="rgb(0,0,0)" font-family="Arial" font-size="12">1500</text>
<text x="2" y="341" fill="rgb(0,0,0)" font-family="Arial" font-size="12">2000</text>
<text x="2" y="285" fill="rgb(0,0,0)" font-family="Arial" font-size="12">2500</text>
<text x="2" y="229" fill="rgb(0,0,0)" font-family="Arial" font-size="12">3000</text>
<text x="2" y="172" fill="rgb(0,0,0)" font-family="Arial" font-size="12">3500</text>
<text x="2" y="116" fill="rgb(0,0,0)" font-family="Arial" font-size="12">4000</text>
<text x="2" y="60" fill="rgb(0,0,0)" font-family="Arial" font-size="12">4500</text>
<text x="274" y="30" fill="rgb(0,0,0)" font-family="Arial" font-size="12">Quality score distribution over all sequences</text>
<line x1="37" y1="560" x2="790" y2="560" stroke="rgb(0,0,0)" stroke-width="1"/>
<line x1="37" y1="560" x2="37" y2="40" stroke="rgb(0,0,0)" stroke-width="1"/>
<text x="281" y="595" fill="rgb(0,0,0)" font-family="Arial" font-size="12">Mean Sequence Quality (Phred Score)</text>
<text x="51" y="575" fill="rgb(0,0,0)" font-family="Arial" font-size="12">21</text>
<rect width="44" height="520" x="81" y="40" style="fill:rgb(230,230,230);stroke:none"/>
<text x="95" y="575" fill="rgb(0,0,0)" font-family="Arial" font-size="12">22</text>
<text x="139" y="575" fill="rgb(0,0,0)" font-family="Arial" font-size="12">23</text>
<rect width="44" height="520" x="169" y="40" style="fill:rgb(230,230,230);stroke:none"/>
<text x="183" y="575" fill="rgb(0,0,0)" font-family="Arial" font-size="12">24</text>
<text x="227" y="575" fill="rgb(0,0,0)" font-family="Arial" font-size="12">25</text>
<rect width="44" height="520" x="257" y="40" style="fill:rgb(230,230,230);stroke:none"/>
<text x="271" y="575" fill="rgb(0,0,0)" font-family="Arial" font-size="12">26</text>
<text x="315" y="575" fill="rgb(0,0,0)" font-family="Arial" font-size="12">27</text>
<rect width="44" height="520" x="345" y="40" style="fill:rgb(230,230,230);stroke:none"/>
<text x="359" y="575" fill="rgb(0,0,0)" font-family="Arial" font-size="12">28</text>
<text x="403" y="575" fill="rgb(0,0,0)" font-family="Arial" font-size="12">29</text>
<rect width="44" height="520" x="433" y="40" style="fill:rgb(230,230,230);stroke:none"/>
<text x="447" y="575" fill="rgb(0,0,0)" font-family="Arial" font-size="12">30</text>
<text x="491" y="575" fill="rgb(0,0,0)" font-family="Arial" font-size="12">31</text>
<rect width="44" height="520" x="521" y="40" style="fill:rgb(230,230,230);stroke:none"/>
<text x="535" y="575" fill="rgb(0,0,0)" font-family="Arial" font-size="12">32</text>
<text x="579" y="575" fill="rgb(0,0,0)" font-family="Arial" font-size="12">33</text>
<rect width="44" height="520" x="609" y="40" style="fill:rgb(230,230,230);stroke:none"/>
<text x="623" y="575" fill="rgb(0,0,0)" font-family="Arial" font-size="12">34</text>
<text x="667" y="575" fill="rgb(0,0,0)" font-family="Arial" font-size="12">35</text>
<rect width="44" height="520" x="697" y="40" style="fill:rgb(230,230,230);stroke:none"/>
<text x="711" y="575" fill="rgb(0,0,0)" font-family="Arial" font-size="12">36</text>
<text x="755" y="575" fill="rgb(0,0,0)" font-family="Arial" font-size="12">37</text>
<line x1="37" y1="560" x2="790" y2="560" stroke="rgb(180,180,180)" stroke-width="1"/>
<line x1="37" y1="504" x2="790" y2="504" stroke="rgb(180,180,180)" stroke-width="1"/>
<line x1="37" y1="448" x2="790" y2="448" stroke="rgb(180,180,180)" stroke-width="1"/>
<line x1="37" y1="392" x2="790" y2="392" stroke="rgb(180,180,180)" stroke-width="1"/>
<line x1="37" y1="335" x2="790" y2="335" stroke="rgb(180,180,180)" stroke-width="1"/>
<line x1="37" y1="279" x2="790" y2="279" stroke="rgb(180,180,180)" stroke-width="1"/>
<line x1="37" y1="223" x2="790" y2="223" stroke="rgb(180,180,180)" stroke-width="1"/>
<line x1="37" y1="166" x2="790" y2="166" stroke="rgb(180,180,180)" stroke-width="1"/>
<line x1="37" y1="110" x2="790" y2="110" stroke="rgb(180,180,180)" stroke-width="1"/>
<line x1="37" y1="54" x2="790" y2="54" stroke="rgb(180,180,180)" stroke-width="1"/>
<line x1="59" y1="560" x2="103" y2="560" stroke="rgb(136,34,85)" stroke-width="1"/>
<line x1="103" y1="560" x2="147" y2="560" stroke="rgb(136,34,85)" stroke-width="1"/>
<line x1="147" y1="560" x2="191" y2="559" stroke="rgb(136,34,85)" stroke-width="1"/>
<line x1="191" y1="559" x2="235" y2="559" stroke="rgb(136,34,85)" stroke-width="1"/>
<line x1="235" y1="559" x2="279" y2="557" stroke="rgb(136,34,85)" stroke-width="1"/>
<line x1="279" y1="557" x2="323" y2="552" stroke="rgb(136,34,85)" stroke-width="1"/>
<line x1="323" y1="552" x2="367" y2="547" stroke="rgb(136,34,85)" stroke-width="1"/>
<line x1="367" y1="547" x2="411" y2="533" stroke="rgb(136,34,85)" stroke-width="1"/>
<line x1="411" y1="533" x2="455" y2="521" stroke="rgb(136,34,85)" stroke-width="1"/>
<line x1="455" y1="521" x2="499" y2="501" stroke="rgb(136,34,85)" stroke-width="1"/>
<line x1="499" y1="501" x2="543" y2="475" stroke="rgb(136,34,85)" stroke-width="1"/>
<line x1="543" y1="475" x2="587" y2="430" stroke="rgb(136,34,85)" stroke-width="1"/>
<line x1="587" y1="430" x2="631" y2="373" stroke="rgb(136,34,85)" stroke-width="1"/>
<line x1="631" y1="373" x2="675" y2="256" stroke="rgb(136,34,85)" stroke-width="1"/>
<line x1="675" y1="256" x2="719" y2="40" stroke="rgb(136,34,85)" stroke-width="1"/>
<line x1="719" y1="40" x2="763" y2="104" stroke="rgb(136,34,85)" stroke-width="1"/>
<rect width="183" height="23" x="607" y="40" style="fill:rgb(255,255,255);stroke:none"/>
<rect width="183" height="23" x="607" y="40" rx="0" ry="0" style="fill:none;stroke-width:1;stroke:rgb(192,192,192)"/>
<text x="610" y="55" fill="rgb(136,34,85)" font-family="Arial" font-size="12" font-weight="bold">Average Quality per read</text>
</svg>
