<?xml version="1.0" standalone="no"?>
<!DOCTYPE svg PUBLIC "-//W3C//DTD SVG 1.1//EN" "http://www.w3.org/Graphics/SVG/1.1/DTD/svg11.dtd">
<svg width="800" height="600" version="1.1" xmlns="http://www.w3.org/2000/svg">
<rect width="800" height="600" x="0" y="0" style="fill:rgb(238,238,238);stroke:none"/>
<rect width="800" height="600" x="0" y="0" style="fill:rgb(255,255,255);stroke:none"/>
<text x="2" y="566" fill="rgb(0,0,0)" font-family="Arial" font-size="12">0</text>
<text x="2" y="510" fill="rgb(0,0,0)" font-family="Arial" font-size="12">2500</text>
<text x="2" y="454" fill="rgb(0,0,0)" font-family="Arial" font-size="12">5000</text>
<text x="2" y="398" fill="rgb(0,0,0)" font-family="Arial" font-size="12">7500</text>
<text x="2" y="341" fill="rgb(0,0,0)" font-family="Arial" font-size="12">10000</text>
<text x="2" y="285" fill="rgb(0,0,0)" font-family="Arial" font-size="12">12500</text>
<text x="2" y="229" fill="rgb(0,0,0)" font-family="Arial" font-size="12">15000</text>
<text x="2" y="172" fill="rgb(0,0,0)" font-family="Arial" font-size="12">17500</text>
<text x="2" y="116" fill="rgb(0,0,0)" font-family="Arial" font-size="12">20000</text>
<text x="2" y="60" fill="rgb(0,0,0)" font-family="Arial" font-size="12">22500</text>
<text x="278" y="30" fill="rgb(0,0,0)" font-family="Arial" font-size="12">Quality score distribution over all sequences</text>
<line x1="45" y1="560" x2="790" y2="560" stroke="rgb(0,0,0)" stroke-width="1"/>
<line x1="45" y1="560" x2="45" y2="40" stroke="rgb(0,0,0)" stroke-width="1"/>
<text x="281" y="595" fill="rgb(0,0,0)" font-family="Arial" font-size="12">Mean Sequence Quality (Phred Score)</text>
<text x="58" y="575" fill="rgb(0,0,0)" font-family="Arial" font-size="12">21</text>
<rect width="43" height="520" x="88" y="40" style="fill:rgb(230,230,230);stroke:none"/>
<text x="101" y="575" fill="rgb(0,0,0)" font-family="Arial" font-size="12">22</text>
<text x="144" y="575" fill="rgb(0,0,0)" font-family="Arial" font-size="12">23</text>
<rect width="43" height="520" x="174" y="40" style="fill:rgb(230,230,230);stroke:none"/>
<text x="187" y="575" fill="rgb(0,0,0)" font-family="Arial" font-size="12">24</text>
<text x="230" y="575" fill="rgb(0,0,0)" font-family="Arial" font-size="12">25</text>
<rect width="43" height="520" x="260" y="40" style="fill:rgb(230,230,230);stroke:none"/>
<text x="273" y="575" fill="rgb(0,0,0)" font-family="Arial" font-size="12">26</text>
<text x="316" y="575" fill="rgb(0,0,0)" font-family="Arial" font-size="12">27</text>
<rect width="43" height="520" x="346" y="40" style="fill:rgb(230,230,230);stroke:none"/>
<text x="359" y="575" fill="rgb(0,0,0)" font-family="Arial" font-size="12">28</text>
<text x="402" y="575" fill="rgb(0,0,0)" font-family="Arial" font-size="12">29</text>
<rect width="43" height="520" x="432" y="40" style="fill:rgb(230,230,230);stroke:none"/>
<text x="445" y="575" fill="rgb(0,0,0)" font-family="Arial" font-size="12">30</text>
<text x="488" y="575" fill="rgb(0,0,0)" font-family="Arial" font-size="12">31</text>
<rect width="43" height="520" x="518" y="40" style="fill:rgb(230,230,230);stroke:none"/>
<text x="531" y="575" fill="rgb(0,0,0)" font-family="Arial" font-size="12">32</text>
<text x="574" y="575" fill="rgb(0,0,0)" font-family="Arial" font-size="12">33</text>
<rect width="43" height="520" x="604" y="40" style="fill:rgb(230,230,230);stroke:none"/>
<text x="617" y="575" fill="rgb(0,0,0)" font-family="Arial" font-size="12">34</text>
<text x="660" y="575" fill="rgb(0,0,0)" font-family="Arial" font-size="12">35</text>
<rect width="43" height="520" x="690" y="40" style="fill:rgb(230,230,230);stroke:none"/>
<text x="703" y="575" fill="rgb(0,0,0)" font-family="Arial" font-size="12">36</text>
<text x="746" y="575" fill="rgb(0,0,0)" font-family="Arial" font-size="12">37</text>
<line x1="45" y1="560" x2="790" y2="560" stroke="rgb(180,180,180)" stroke-width="1"/>
<line x1="45" y1="504" x2="790" y2="504" stroke="rgb(180,180,180)" stroke-width="1"/>
<line x1="45" y1="448" x2="790" y2="448" stroke="rgb(180,180,180)" stroke-width="1"/>
<line x1="45" y1="392" x2="790" y2="392" stroke="rgb(180,180,180)" stroke-width="1"/>
<line x1="45" y1="335" x2="790" y2="335" stroke="rgb(180,180,180)" stroke-width="1"/>
<line x1="45" y1="279" x2="790" y2="279" stroke="rgb(180,180,180)" stroke-width="1"/>
<line x1="45" y1="223" x2="790" y2="223" stroke="rgb(180,180,180)" stroke-width="1"/>
<line x1="45" y1="166" x2="790" y2="166" stroke="rgb(180,180,180)" stroke-width="1"/>
<line x1="45" y1="110" x2="790" y2="110" stroke="rgb(180,180,180)" stroke-width="1"/>
<line x1="45" y1="54" x2="790" y2="54" stroke="rgb(180,180,180)" stroke-width="1"/>
<line x1="66" y1="560" x2="109" y2="560" stroke="rgb(136,34,85)" stroke-width="1"/>
<line x1="109" y1="560" x2="152" y2="560" stroke="rgb(136,34,85)" stroke-width="1"/>
<line x1="152" y1="560" x2="195" y2="560" stroke="rgb(136,34,85)" stroke-width="1"/>
<line x1="195" y1="560" x2="238" y2="559" stroke="rgb(136,34,85)" stroke-width="1"/>
<line x1="238" y1="559" x2="281" y2="559" stroke="rgb(136,34,85)" stroke-width="1"/>
<line x1="281" y1="559" x2="324" y2="557" stroke="rgb(136,34,85)" stroke-width="1"/>
<line x1="324" y1="557" x2="367" y2="556" stroke="rgb(136,34,85)" stroke-width="1"/>
<line x1="367" y1="556" x2="410" y2="553" stroke="rgb(136,34,85)" stroke-width="1"/>
<line x1="410" y1="553" x2="453" y2="548" stroke="rgb(136,34,85)" stroke-width="1"/>
<line x1="453" y1="548" x2="496" y2="542" stroke="rgb(136,34,85)" stroke-width="1"/>
<line x1="496" y1="542" x2="539" y2="537" stroke="rgb(136,34,85)" stroke-width="1"/>
<line x1="539" y1="537" x2="582" y2="524" stroke="rgb(136,34,85)" stroke-width="1"/>
<line x1="582" y1="524" x2="625" y2="508" stroke="rgb(136,34,85)" stroke-width="1"/>
<line x1="625" y1="508" x2="668" y2="463" stroke="rgb(136,34,85)" stroke-width="1"/>
<line x1="668" y1="463" x2="711" y2="299" stroke="rgb(136,34,85)" stroke-width="1"/>
<line x1="711" y1="299" x2="754" y2="40" stroke="rgb(136,34,85)" stroke-width="1"/>
<rect width="183" height="23" x="607" y="40" style="fill:rgb(255,255,255);stroke:none"/>
<rect width="183" height="23" x="607" y="40" rx="0" ry="0" style="fill:none;stroke-width:1;stroke:rgb(192,192,192)"/>
<text x="610" y="55" fill="rgb(136,34,85)" font-family="Arial" font-size="12" font-weight="bold">Average Quality per read</text>
</svg>
