<?xml version="1.0" standalone="no"?>
<!DOCTYPE svg PUBLIC "-//W3C//DTD SVG 1.1//EN" "http://www.w3.org/Graphics/SVG/1.1/DTD/svg11.dtd">
<svg width="800" height="600" version="1.1" xmlns="http://www.w3.org/2000/svg">
<rect width="800" height="600" x="0" y="0" style="fill:rgb(238,238,238);stroke:none"/>
<rect width="800" height="600" x="0" y="0" style="fill:rgb(255,255,255);stroke:none"/>
<text x="2" y="566" fill="rgb(0,0,0)" font-family="Arial" font-size="12">0</text>
<text x="2" y="509" fill="rgb(0,0,0)" font-family="Arial" font-size="12">250</text>
<text x="2" y="452" fill="rgb(0,0,0)" font-family="Arial" font-size="12">500</text>
<text x="2" y="395" fill="rgb(0,0,0)" font-family="Arial" font-size="12">750</text>
<text x="2" y="338" fill="rgb(0,0,0)" font-family="Arial" font-size="12">1000</text>
<text x="2" y="281" fill="rgb(0,0,0)" font-family="Arial" font-size="12">1250</text>
<text x="2" y="224" fill="rgb(0,0,0)" font-family="Arial" font-size="12">1500</text>
<text x="2" y="166" fill="rgb(0,0,0)" font-family="Arial" font-size="12">1750</text>
<text x="2" y="109" fill="rgb(0,0,0)" font-family="Arial" font-size="12">2000</text>
<text x="2" y="52" fill="rgb(0,0,0)" font-family="Arial" font-size="12">2250</text>
<text x="274" y="30" fill="rgb(0,0,0)" font-family="Arial" font-size="12">Quality score distribution over all sequences</text>
<line x1="37" y1="560" x2="790" y2="560" stroke="rgb(0,0,0)" stroke-width="1"/>
<line x1="37" y1="560" x2="37" y2="40" stroke="rgb(0,0,0)" stroke-width="1"/>
<text x="281" y="595" fill="rgb(0,0,0)" font-family="Arial" font-size="12">Mean Sequence Quality (Phred Score)</text>
<text x="47" y="575" fill="rgb(0,0,0)" font-family="Arial" font-size="12">18</text>
<rect width="37" height="520" x="74" y="40" style="fill:rgb(230,230,230);stroke:none"/>
<text x="84" y="575" fill="rgb(0,0,0)" font-family="Arial" font-size="12">19</text>
<text x="121" y="575" fill="rgb(0,0,0)" font-family="Arial" font-size="12">20</text>
<rect width="37" height="520" x="148" y="40" style="fill:rgb(230,230,230);stroke:none"/>
<text x="158" y="575" fill="rgb(0,0,0)" font-family="Arial" font-size="12">21</text>
<text x="195" y="575" fill="rgb(0,0,0)" font-family="Arial" font-size="12">22</text>
<rect width="37" height="520" x="222" y="40" style="fill:rgb(230,230,230);stroke:none"/>
<text x="232" y="575" fill="rgb(0,0,0)" font-family="Arial" font-size="12">23</text>
<text x="269" y="575" fill="rgb(0,0,0)" font-family="Arial" font-size="12">24</text>
<rect width="37" height="520" x="296" y="40" style="fill:rgb(230,230,230);stroke:none"/>
<text x="306" y="575" fill="rgb(0,0,0)" font-family="Arial" font-size="12">25</text>
<text x="343" y="575" fill="rgb(0,0,0)" font-family="Arial" font-size="12">26</text>
<rect width="37" height="520" x="370" y="40" style="fill:rgb(230,230,230);stroke:none"/>
<text x="380" y="575" fill="rgb(0,0,0)" font-family="Arial" font-size="12">27</text>
<text x="417" y="575" fill="rgb(0,0,0)" font-family="Arial" font-size="12">28</text>
<rect width="37" height="520" x="444" y="40" style="fill:rgb(230,230,230);stroke:none"/>
<text x="454" y="575" fill="rgb(0,0,0)" font-family="Arial" font-size="12">29</text>
<text x="491" y="575" fill="rgb(0,0,0)" font-family="Arial" font-size="12">30</text>
<rect width="37" height="520" x="518" y="40" style="fill:rgb(230,230,230);stroke:none"/>
<text x="528" y="575" fill="rgb(0,0,0)" font-family="Arial" font-size="12">31</text>
<text x="565" y="575" fill="rgb(0,0,0)" font-family="Arial" font-size="12">32</text>
<rect width="37" height="520" x="592" y="40" style="fill:rgb(230,230,230);stroke:none"/>
<text x="602" y="575" fill="rgb(0,0,0)" font-family="Arial" font-size="12">33</text>
<text x="639" y="575" fill="rgb(0,0,0)" font-family="Arial" font-size="12">34</text>
<rect width="37" height="520" x="666" y="40" style="fill:rgb(230,230,230);stroke:none"/>
<text x="676" y="575" fill="rgb(0,0,0)" font-family="Arial" font-size="12">35</text>
<text x="713" y="575" fill="rgb(0,0,0)" font-family="Arial" font-size="12">36</text>
<rect width="37" height="520" x="740" y="40" style="fill:rgb(230,230,230);stroke:none"/>
<text x="750" y="575" fill="rgb(0,0,0)" font-family="Arial" font-size="12">37</text>
<line x1="37" y1="560" x2="790" y2="560" stroke="rgb(180,180,180)" stroke-width="1"/>
<line x1="37" y1="503" x2="790" y2="503" stroke="rgb(180,180,180)" stroke-width="1"/>
<line x1="37" y1="446" x2="790" y2="446" stroke="rgb(180,180,180)" stroke-width="1"/>
<line x1="37" y1="389" x2="790" y2="389" stroke="rgb(180,180,180)" stroke-width="1"/>
<line x1="37" y1="332" x2="790" y2="332" stroke="rgb(180,180,180)" stroke-width="1"/>
<line x1="37" y1="275" x2="790" y2="275" stroke="rgb(180,180,180)" stroke-width="1"/>
<line x1="37" y1="218" x2="790" y2="218" stroke="rgb(180,180,180)" stroke-width="1"/>
<line x1="37" y1="160" x2="790" y2="160" stroke="rgb(180,180,180)" stroke-width="1"/>
<line x1="37" y1="103" x2="790" y2="103" stroke="rgb(180,180,180)" stroke-width="1"/>
<line x1="37" y1="46" x2="790" y2="46" stroke="rgb(180,180,180)" stroke-width="1"/>
<line x1="55" y1="560" x2="92" y2="558" stroke="rgb(136,34,85)" stroke-width="1"/>
<line x1="92" y1="558" x2="129" y2="548" stroke="rgb(136,34,85)" stroke-width="1"/>
<line x1="129" y1="548" x2="166" y2="536" stroke="rgb(136,34,85)" stroke-width="1"/>
<line x1="166" y1="536" x2="203" y2="519" stroke="rgb(136,34,85)" stroke-width="1"/>
<line x1="203" y1="519" x2="240" y2="494" stroke="rgb(136,34,85)" stroke-width="1"/>
<line x1="240" y1="494" x2="277" y2="475" stroke="rgb(136,34,85)" stroke-width="1"/>
<line x1="277" y1="475" x2="314" y2="458" stroke="rgb(136,34,85)" stroke-width="1"/>
<line x1="314" y1="458" x2="351" y2="418" stroke="rgb(136,34,85)" stroke-width="1"/>
<line x1="351" y1="418" x2="388" y2="406" stroke="rgb(136,34,85)" stroke-width="1"/>
<line x1="388" y1="406" x2="425" y2="357" stroke="rgb(136,34,85)" stroke-width="1"/>
<line x1="425" y1="357" x2="462" y2="304" stroke="rgb(136,34,85)" stroke-width="1"/>
<line x1="462" y1="304" x2="499" y2="251" stroke="rgb(136,34,85)" stroke-width="1"/>
<line x1="499" y1="251" x2="536" y2="189" stroke="rgb(136,34,85)" stroke-width="1"/>
<line x1="536" y1="189" x2="573" y2="119" stroke="rgb(136,34,85)" stroke-width="1"/>
<line x1="573" y1="119" x2="610" y2="46" stroke="rgb(136,34,85)" stroke-width="1"/>
<line x1="610" y1="46" x2="647" y2="40" stroke="rgb(136,34,85)" stroke-width="1"/>
<line x1="647" y1="40" x2="684" y2="193" stroke="rgb(136,34,85)" stroke-width="1"/>
<line x1="684" y1="193" x2="721" y2="445" stroke="rgb(136,34,85)" stroke-width="1"/>
<line x1="721" y1="445" x2="758" y2="560" stroke="rgb(136,34,85)" stroke-width="1"/>
<rect width="183" height="23" x="607" y="40" style="fill:rgb(255,255,255);stroke:none"/>
<rect width="183" height="23" x="607" y="40" rx="0" ry="0" style="fill:none;stroke-width:1;stroke:rgb(192,192,192)"/>
<text x="610" y="55" fill="rgb(136,34,85)" font-family="Arial" font-size="12" font-weight="bold">Average Quality per read</text>
</svg>
