<?xml version="1.0" standalone="no"?>
<!DOCTYPE svg PUBLIC "-//W3C//DTD SVG 1.1//EN" "http://www.w3.org/Graphics/SVG/1.1/DTD/svg11.dtd">
<svg width="800" height="600" version="1.1" xmlns="http://www.w3.org/2000/svg">
<rect width="800" height="600" x="0" y="0" style="fill:rgb(238,238,238);stroke:none"/>
<rect width="800" height="600" x="0" y="0" style="fill:rgb(255,255,255);stroke:none"/>
<text x="2" y="566" fill="rgb(0,0,0)" font-family="Arial" font-size="12">0</text>
<text x="2" y="514" fill="rgb(0,0,0)" font-family="Arial" font-size="12">2000</text>
<text x="2" y="462" fill="rgb(0,0,0)" font-family="Arial" font-size="12">4000</text>
<text x="2" y="409" fill="rgb(0,0,0)" font-family="Arial" font-size="12">6000</text>
<text x="2" y="357" fill="rgb(0,0,0)" font-family="Arial" font-size="12">8000</text>
<text x="2" y="304" fill="rgb(0,0,0)" font-family="Arial" font-size="12">10000</text>
<text x="2" y="252" fill="rgb(0,0,0)" font-family="Arial" font-size="12">12000</text>
<text x="2" y="199" fill="rgb(0,0,0)" font-family="Arial" font-size="12">14000</text>
<text x="2" y="147" fill="rgb(0,0,0)" font-family="Arial" font-size="12">16000</text>
<text x="2" y="94" fill="rgb(0,0,0)" font-family="Arial" font-size="12">18000</text>
<text x="254" y="30" fill="rgb(0,0,0)" font-family="Arial" font-size="12">Distribution of sequence lengths over all sequences</text>
<line x1="45" y1="560" x2="790" y2="560" stroke="rgb(0,0,0)" stroke-width="1"/>
<line x1="45" y1="560" x2="45" y2="40" stroke="rgb(0,0,0)" stroke-width="1"/>
<text x="330" y="595" fill="rgb(0,0,0)" font-family="Arial" font-size="12">Sequence Length (bp)</text>
<text x="157" y="575" fill="rgb(0,0,0)" font-family="Arial" font-size="12">300</text>
<rect width="248" height="520" x="293" y="40" style="fill:rgb(230,230,230);stroke:none"/>
<text x="405" y="575" fill="rgb(0,0,0)" font-family="Arial" font-size="12">301</text>
<text x="653" y="575" fill="rgb(0,0,0)" font-family="Arial" font-size="12">302</text>
<line x1="45" y1="560" x2="790" y2="560" stroke="rgb(180,180,180)" stroke-width="1"/>
<line x1="45" y1="508" x2="790" y2="508" stroke="rgb(180,180,180)" stroke-width="1"/>
<line x1="45" y1="456" x2="790" y2="456" stroke="rgb(180,180,180)" stroke-width="1"/>
<line x1="45" y1="403" x2="790" y2="403" stroke="rgb(180,180,180)" stroke-width="1"/>
<line x1="45" y1="351" x2="790" y2="351" stroke="rgb(180,180,180)" stroke-width="1"/>
<line x1="45" y1="298" x2="790" y2="298" stroke="rgb(180,180,180)" stroke-width="1"/>
<line x1="45" y1="246" x2="790" y2="246" stroke="rgb(180,180,180)" stroke-width="1"/>
<line x1="45" y1="193" x2="790" y2="193" stroke="rgb(180,180,180)" stroke-width="1"/>
<line x1="45" y1="141" x2="790" y2="141" stroke="rgb(180,180,180)" stroke-width="1"/>
<line x1="45" y1="88" x2="790" y2="88" stroke="rgb(180,180,180)" stroke-width="1"/>
<line x1="169" y1="560" x2="417" y2="40" stroke="rgb(136,34,85)" stroke-width="1"/>
<line x1="417" y1="40" x2="665" y2="560" stroke="rgb(136,34,85)" stroke-width="1"/>
<rect width="130" height="23" x="660" y="40" style="fill:rgb(255,255,255);stroke:none"/>
<rect width="130" height="23" x="660" y="40" rx="0" ry="0" style="fill:none;stroke-width:1;stroke:rgb(192,192,192)"/>
<text x="663" y="55" fill="rgb(136,34,85)" font-family="Arial" font-size="12" font-weight="bold">Sequence Length</text>
</svg>
