<?xml version="1.0" standalone="no"?>
<!DOCTYPE svg PUBLIC "-//W3C//DTD SVG 1.1//EN" "http://www.w3.org/Graphics/SVG/1.1/DTD/svg11.dtd">
<svg width="800" height="600" version="1.1" xmlns="http://www.w3.org/2000/svg">
<rect width="800" height="600" x="0" y="0" style="fill:rgb(238,238,238);stroke:none"/>
<rect width="800" height="600" x="0" y="0" style="fill:rgb(255,255,255);stroke:none"/>
<text x="2" y="566" fill="rgb(0,0,0)" font-family="Arial" font-size="12">0</text>
<text x="2" y="514" fill="rgb(0,0,0)" font-family="Arial" font-size="12">1000</text>
<text x="2" y="461" fill="rgb(0,0,0)" font-family="Arial" font-size="12">2000</text>
<text x="2" y="408" fill="rgb(0,0,0)" font-family="Arial" font-size="12">3000</text>
<text x="2" y="355" fill="rgb(0,0,0)" font-family="Arial" font-size="12">4000</text>
<text x="2" y="302" fill="rgb(0,0,0)" font-family="Arial" font-size="12">5000</text>
<text x="2" y="249" fill="rgb(0,0,0)" font-family="Arial" font-size="12">6000</text>
<text x="2" y="196" fill="rgb(0,0,0)" font-family="Arial" font-size="12">7000</text>
<text x="2" y="143" fill="rgb(0,0,0)" font-family="Arial" font-size="12">8000</text>
<text x="2" y="90" fill="rgb(0,0,0)" font-family="Arial" font-size="12">9000</text>
<text x="274" y="30" fill="rgb(0,0,0)" font-family="Arial" font-size="12">Quality score distribution over all sequences</text>
<line x1="37" y1="560" x2="790" y2="560" stroke="rgb(0,0,0)" stroke-width="1"/>
<line x1="37" y1="560" x2="37" y2="40" stroke="rgb(0,0,0)" stroke-width="1"/>
<text x="281" y="595" fill="rgb(0,0,0)" font-family="Arial" font-size="12">Mean Sequence Quality (Phred Score)</text>
<text x="47" y="575" fill="rgb(0,0,0)" font-family="Arial" font-size="12">18</text>
<rect width="37" height="520" x="74" y="40" style="fill:rgb(230,230,230);stroke:none"/>
<text x="84" y="575" fill="rgb(0,0,0)" font-family="Arial" font-size="12">19</text>
<text x="121" y="575" fill="rgb(0,0,0)" font-family="Arial" font-size="12">20</text>
<rect width="37" height="520" x="148" y="40" style="fill:rgb(230,230,230);stroke:none"/>
<text x="158" y="575" fill="rgb(0,0,0)" font-family="Arial" font-size="12">21</text>
<text x="195" y="575" fill="rgb(0,0,0)" font-family="Arial" font-size="12">22</text>
<rect width="37" height="520" x="222" y="40" style="fill:rgb(230,230,230);stroke:none"/>
<text x="232" y="575" fill="rgb(0,0,0)" font-family="Arial" font-size="12">23</text>
<text x="269" y="575" fill="rgb(0,0,0)" font-family="Arial" font-size="12">24</text>
<rect width="37" height="520" x="296" y="40" style="fill:rgb(230,230,230);stroke:none"/>
<text x="306" y="575" fill="rgb(0,0,0)" font-family="Arial" font-size="12">25</text>
<text x="343" y="575" fill="rgb(0,0,0)" font-family="Arial" font-size="12">26</text>
<rect width="37" height="520" x="370" y="40" style="fill:rgb(230,230,230);stroke:none"/>
<text x="380" y="575" fill="rgb(0,0,0)" font-family="Arial" font-size="12">27</text>
<text x="417" y="575" fill="rgb(0,0,0)" font-family="Arial" font-size="12">28</text>
<rect width="37" height="520" x="444" y="40" style="fill:rgb(230,230,230);stroke:none"/>
<text x="454" y="575" fill="rgb(0,0,0)" font-family="Arial" font-size="12">29</text>
<text x="491" y="575" fill="rgb(0,0,0)" font-family="Arial" font-size="12">30</text>
<rect width="37" height="520" x="518" y="40" style="fill:rgb(230,230,230);stroke:none"/>
<text x="528" y="575" fill="rgb(0,0,0)" font-family="Arial" font-size="12">31</text>
<text x="565" y="575" fill="rgb(0,0,0)" font-family="Arial" font-size="12">32</text>
<rect width="37" height="520" x="592" y="40" style="fill:rgb(230,230,230);stroke:none"/>
<text x="602" y="575" fill="rgb(0,0,0)" font-family="Arial" font-size="12">33</text>
<text x="639" y="575" fill="rgb(0,0,0)" font-family="Arial" font-size="12">34</text>
<rect width="37" height="520" x="666" y="40" style="fill:rgb(230,230,230);stroke:none"/>
<text x="676" y="575" fill="rgb(0,0,0)" font-family="Arial" font-size="12">35</text>
<text x="713" y="575" fill="rgb(0,0,0)" font-family="Arial" font-size="12">36</text>
<rect width="37" height="520" x="740" y="40" style="fill:rgb(230,230,230);stroke:none"/>
<text x="750" y="575" fill="rgb(0,0,0)" font-family="Arial" font-size="12">37</text>
<line x1="37" y1="560" x2="790" y2="560" stroke="rgb(180,180,180)" stroke-width="1"/>
<line x1="37" y1="508" x2="790" y2="508" stroke="rgb(180,180,180)" stroke-width="1"/>
<line x1="37" y1="455" x2="790" y2="455" stroke="rgb(180,180,180)" stroke-width="1"/>
<line x1="37" y1="402" x2="790" y2="402" stroke="rgb(180,180,180)" stroke-width="1"/>
<line x1="37" y1="349" x2="790" y2="349" stroke="rgb(180,180,180)" stroke-width="1"/>
<line x1="37" y1="296" x2="790" y2="296" stroke="rgb(180,180,180)" stroke-width="1"/>
<line x1="37" y1="243" x2="790" y2="243" stroke="rgb(180,180,180)" stroke-width="1"/>
<line x1="37" y1="190" x2="790" y2="190" stroke="rgb(180,180,180)" stroke-width="1"/>
<line x1="37" y1="137" x2="790" y2="137" stroke="rgb(180,180,180)" stroke-width="1"/>
<line x1="37" y1="84" x2="790" y2="84" stroke="rgb(180,180,180)" stroke-width="1"/>
<line x1="55" y1="560" x2="92" y2="559" stroke="rgb(136,34,85)" stroke-width="1"/>
<line x1="92" y1="559" x2="129" y2="556" stroke="rgb(136,34,85)" stroke-width="1"/>
<line x1="129" y1="556" x2="166" y2="549" stroke="rgb(136,34,85)" stroke-width="1"/>
<line x1="166" y1="549" x2="203" y2="543" stroke="rgb(136,34,85)" stroke-width="1"/>
<line x1="203" y1="543" x2="240" y2="536" stroke="rgb(136,34,85)" stroke-width="1"/>
<line x1="240" y1="536" x2="277" y2="525" stroke="rgb(136,34,85)" stroke-width="1"/>
<line x1="277" y1="525" x2="314" y2="519" stroke="rgb(136,34,85)" stroke-width="1"/>
<line x1="314" y1="519" x2="351" y2="510" stroke="rgb(136,34,85)" stroke-width="1"/>
<line x1="351" y1="510" x2="388" y2="498" stroke="rgb(136,34,85)" stroke-width="1"/>
<line x1="388" y1="498" x2="425" y2="488" stroke="rgb(136,34,85)" stroke-width="1"/>
<line x1="425" y1="488" x2="462" y2="469" stroke="rgb(136,34,85)" stroke-width="1"/>
<line x1="462" y1="469" x2="499" y2="450" stroke="rgb(136,34,85)" stroke-width="1"/>
<line x1="499" y1="450" x2="536" y2="426" stroke="rgb(136,34,85)" stroke-width="1"/>
<line x1="536" y1="426" x2="573" y2="384" stroke="rgb(136,34,85)" stroke-width="1"/>
<line x1="573" y1="384" x2="610" y2="321" stroke="rgb(136,34,85)" stroke-width="1"/>
<line x1="610" y1="321" x2="647" y2="211" stroke="rgb(136,34,85)" stroke-width="1"/>
<line x1="647" y1="211" x2="684" y2="43" stroke="rgb(136,34,85)" stroke-width="1"/>
<line x1="684" y1="43" x2="721" y2="40" stroke="rgb(136,34,85)" stroke-width="1"/>
<line x1="721" y1="40" x2="758" y2="519" stroke="rgb(136,34,85)" stroke-width="1"/>
<rect width="183" height="23" x="607" y="40" style="fill:rgb(255,255,255);stroke:none"/>
<rect width="183" height="23" x="607" y="40" rx="0" ry="0" style="fill:none;stroke-width:1;stroke:rgb(192,192,192)"/>
<text x="610" y="55" fill="rgb(136,34,85)" font-family="Arial" font-size="12" font-weight="bold">Average Quality per read</text>
</svg>
