<?xml version="1.0" standalone="no"?>
<!DOCTYPE svg PUBLIC "-//W3C//DTD SVG 1.1//EN" "http://www.w3.org/Graphics/SVG/1.1/DTD/svg11.dtd">
<svg width="800" height="600" version="1.1" xmlns="http://www.w3.org/2000/svg">
<rect width="800" height="600" x="0" y="0" style="fill:rgb(238,238,238);stroke:none"/>
<rect width="800" height="600" x="0" y="0" style="fill:rgb(255,255,255);stroke:none"/>
<text x="2" y="566" fill="rgb(0,0,0)" font-family="Arial" font-size="12">0</text>
<text x="2" y="463" fill="rgb(0,0,0)" font-family="Arial" font-size="12">5000</text>
<text x="2" y="360" fill="rgb(0,0,0)" font-family="Arial" font-size="12">10000</text>
<text x="2" y="256" fill="rgb(0,0,0)" font-family="Arial" font-size="12">15000</text>
<text x="2" y="153" fill="rgb(0,0,0)" font-family="Arial" font-size="12">20000</text>
<text x="2" y="50" fill="rgb(0,0,0)" font-family="Arial" font-size="12">25000</text>
<text x="278" y="30" fill="rgb(0,0,0)" font-family="Arial" font-size="12">Quality score distribution over all sequences</text>
<line x1="45" y1="560" x2="790" y2="560" stroke="rgb(0,0,0)" stroke-width="1"/>
<line x1="45" y1="560" x2="45" y2="40" stroke="rgb(0,0,0)" stroke-width="1"/>
<text x="281" y="595" fill="rgb(0,0,0)" font-family="Arial" font-size="12">Mean Sequence Quality (Phred Score)</text>
<text x="57" y="575" fill="rgb(0,0,0)" font-family="Arial" font-size="12">20</text>
<rect width="41" height="520" x="86" y="40" style="fill:rgb(230,230,230);stroke:none"/>
<text x="98" y="575" fill="rgb(0,0,0)" font-family="Arial" font-size="12">21</text>
<text x="139" y="575" fill="rgb(0,0,0)" font-family="Arial" font-size="12">22</text>
<rect width="41" height="520" x="168" y="40" style="fill:rgb(230,230,230);stroke:none"/>
<text x="180" y="575" fill="rgb(0,0,0)" font-family="Arial" font-size="12">23</text>
<text x="221" y="575" fill="rgb(0,0,0)" font-family="Arial" font-size="12">24</text>
<rect width="41" height="520" x="250" y="40" style="fill:rgb(230,230,230);stroke:none"/>
<text x="262" y="575" fill="rgb(0,0,0)" font-family="Arial" font-size="12">25</text>
<text x="303" y="575" fill="rgb(0,0,0)" font-family="Arial" font-size="12">26</text>
<rect width="41" height="520" x="332" y="40" style="fill:rgb(230,230,230);stroke:none"/>
<text x="344" y="575" fill="rgb(0,0,0)" font-family="Arial" font-size="12">27</text>
<text x="385" y="575" fill="rgb(0,0,0)" font-family="Arial" font-size="12">28</text>
<rect width="41" height="520" x="414" y="40" style="fill:rgb(230,230,230);stroke:none"/>
<text x="426" y="575" fill="rgb(0,0,0)" font-family="Arial" font-size="12">29</text>
<text x="467" y="575" fill="rgb(0,0,0)" font-family="Arial" font-size="12">30</text>
<rect width="41" height="520" x="496" y="40" style="fill:rgb(230,230,230);stroke:none"/>
<text x="508" y="575" fill="rgb(0,0,0)" font-family="Arial" font-size="12">31</text>
<text x="549" y="575" fill="rgb(0,0,0)" font-family="Arial" font-size="12">32</text>
<rect width="41" height="520" x="578" y="40" style="fill:rgb(230,230,230);stroke:none"/>
<text x="590" y="575" fill="rgb(0,0,0)" font-family="Arial" font-size="12">33</text>
<text x="631" y="575" fill="rgb(0,0,0)" font-family="Arial" font-size="12">34</text>
<rect width="41" height="520" x="660" y="40" style="fill:rgb(230,230,230);stroke:none"/>
<text x="672" y="575" fill="rgb(0,0,0)" font-family="Arial" font-size="12">35</text>
<text x="713" y="575" fill="rgb(0,0,0)" font-family="Arial" font-size="12">36</text>
<rect width="41" height="520" x="742" y="40" style="fill:rgb(230,230,230);stroke:none"/>
<text x="754" y="575" fill="rgb(0,0,0)" font-family="Arial" font-size="12">37</text>
<line x1="45" y1="560" x2="790" y2="560" stroke="rgb(180,180,180)" stroke-width="1"/>
<line x1="45" y1="457" x2="790" y2="457" stroke="rgb(180,180,180)" stroke-width="1"/>
<line x1="45" y1="354" x2="790" y2="354" stroke="rgb(180,180,180)" stroke-width="1"/>
<line x1="45" y1="250" x2="790" y2="250" stroke="rgb(180,180,180)" stroke-width="1"/>
<line x1="45" y1="147" x2="790" y2="147" stroke="rgb(180,180,180)" stroke-width="1"/>
<line x1="45" y1="44" x2="790" y2="44" stroke="rgb(180,180,180)" stroke-width="1"/>
<line x1="65" y1="560" x2="106" y2="560" stroke="rgb(136,34,85)" stroke-width="1"/>
<line x1="106" y1="560" x2="147" y2="560" stroke="rgb(136,34,85)" stroke-width="1"/>
<line x1="147" y1="560" x2="188" y2="559" stroke="rgb(136,34,85)" stroke-width="1"/>
<line x1="188" y1="559" x2="229" y2="558" stroke="rgb(136,34,85)" stroke-width="1"/>
<line x1="229" y1="558" x2="270" y2="556" stroke="rgb(136,34,85)" stroke-width="1"/>
<line x1="270" y1="556" x2="311" y2="552" stroke="rgb(136,34,85)" stroke-width="1"/>
<line x1="311" y1="552" x2="352" y2="546" stroke="rgb(136,34,85)" stroke-width="1"/>
<line x1="352" y1="546" x2="393" y2="537" stroke="rgb(136,34,85)" stroke-width="1"/>
<line x1="393" y1="537" x2="434" y2="526" stroke="rgb(136,34,85)" stroke-width="1"/>
<line x1="434" y1="526" x2="475" y2="513" stroke="rgb(136,34,85)" stroke-width="1"/>
<line x1="475" y1="513" x2="516" y2="496" stroke="rgb(136,34,85)" stroke-width="1"/>
<line x1="516" y1="496" x2="557" y2="474" stroke="rgb(136,34,85)" stroke-width="1"/>
<line x1="557" y1="474" x2="598" y2="439" stroke="rgb(136,34,85)" stroke-width="1"/>
<line x1="598" y1="439" x2="639" y2="385" stroke="rgb(136,34,85)" stroke-width="1"/>
<line x1="639" y1="385" x2="680" y2="262" stroke="rgb(136,34,85)" stroke-width="1"/>
<line x1="680" y1="262" x2="721" y2="40" stroke="rgb(136,34,85)" stroke-width="1"/>
<line x1="721" y1="40" x2="762" y2="464" stroke="rgb(136,34,85)" stroke-width="1"/>
<rect width="183" height="23" x="607" y="40" style="fill:rgb(255,255,255);stroke:none"/>
<rect width="183" height="23" x="607" y="40" rx="0" ry="0" style="fill:none;stroke-width:1;stroke:rgb(192,192,192)"/>
<text x="610" y="55" fill="rgb(136,34,85)" font-family="Arial" font-size="12" font-weight="bold">Average Quality per read</text>
</svg>
