<?xml version="1.0" standalone="no"?>
<!DOCTYPE svg PUBLIC "-//W3C//DTD SVG 1.1//EN" "http://www.w3.org/Graphics/SVG/1.1/DTD/svg11.dtd">
<svg width="800" height="600" version="1.1" xmlns="http://www.w3.org/2000/svg">
<rect width="800" height="600" x="0" y="0" style="fill:rgb(238,238,238);stroke:none"/>
<rect width="800" height="600" x="0" y="0" style="fill:rgb(255,255,255);stroke:none"/>
<text x="2" y="566" fill="rgb(0,0,0)" font-family="Arial" font-size="12">0</text>
<text x="2" y="503" fill="rgb(0,0,0)" font-family="Arial" font-size="12">1000</text>
<text x="2" y="439" fill="rgb(0,0,0)" font-family="Arial" font-size="12">2000</text>
<text x="2" y="375" fill="rgb(0,0,0)" font-family="Arial" font-size="12">3000</text>
<text x="2" y="312" fill="rgb(0,0,0)" font-family="Arial" font-size="12">4000</text>
<text x="2" y="248" fill="rgb(0,0,0)" font-family="Arial" font-size="12">5000</text>
<text x="2" y="184" fill="rgb(0,0,0)" font-family="Arial" font-size="12">6000</text>
<text x="2" y="120" fill="rgb(0,0,0)" font-family="Arial" font-size="12">7000</text>
<text x="2" y="57" fill="rgb(0,0,0)" font-family="Arial" font-size="12">8000</text>
<text x="274" y="30" fill="rgb(0,0,0)" font-family="Arial" font-size="12">Quality score distribution over all sequences</text>
<line x1="37" y1="560" x2="790" y2="560" stroke="rgb(0,0,0)" stroke-width="1"/>
<line x1="37" y1="560" x2="37" y2="40" stroke="rgb(0,0,0)" stroke-width="1"/>
<text x="281" y="595" fill="rgb(0,0,0)" font-family="Arial" font-size="12">Mean Sequence Quality (Phred Score)</text>
<text x="54" y="575" fill="rgb(0,0,0)" font-family="Arial" font-size="12">23</text>
<rect width="50" height="520" x="87" y="40" style="fill:rgb(230,230,230);stroke:none"/>
<text x="104" y="575" fill="rgb(0,0,0)" font-family="Arial" font-size="12">24</text>
<text x="154" y="575" fill="rgb(0,0,0)" font-family="Arial" font-size="12">25</text>
<rect width="50" height="520" x="187" y="40" style="fill:rgb(230,230,230);stroke:none"/>
<text x="204" y="575" fill="rgb(0,0,0)" font-family="Arial" font-size="12">26</text>
<text x="254" y="575" fill="rgb(0,0,0)" font-family="Arial" font-size="12">27</text>
<rect width="50" height="520" x="287" y="40" style="fill:rgb(230,230,230);stroke:none"/>
<text x="304" y="575" fill="rgb(0,0,0)" font-family="Arial" font-size="12">28</text>
<text x="354" y="575" fill="rgb(0,0,0)" font-family="Arial" font-size="12">29</text>
<rect width="50" height="520" x="387" y="40" style="fill:rgb(230,230,230);stroke:none"/>
<text x="404" y="575" fill="rgb(0,0,0)" font-family="Arial" font-size="12">30</text>
<text x="454" y="575" fill="rgb(0,0,0)" font-family="Arial" font-size="12">31</text>
<rect width="50" height="520" x="487" y="40" style="fill:rgb(230,230,230);stroke:none"/>
<text x="504" y="575" fill="rgb(0,0,0)" font-family="Arial" font-size="12">32</text>
<text x="554" y="575" fill="rgb(0,0,0)" font-family="Arial" font-size="12">33</text>
<rect width="50" height="520" x="587" y="40" style="fill:rgb(230,230,230);stroke:none"/>
<text x="604" y="575" fill="rgb(0,0,0)" font-family="Arial" font-size="12">34</text>
<text x="654" y="575" fill="rgb(0,0,0)" font-family="Arial" font-size="12">35</text>
<rect width="50" height="520" x="687" y="40" style="fill:rgb(230,230,230);stroke:none"/>
<text x="704" y="575" fill="rgb(0,0,0)" font-family="Arial" font-size="12">36</text>
<text x="754" y="575" fill="rgb(0,0,0)" font-family="Arial" font-size="12">37</text>
<line x1="37" y1="560" x2="790" y2="560" stroke="rgb(180,180,180)" stroke-width="1"/>
<line x1="37" y1="497" x2="790" y2="497" stroke="rgb(180,180,180)" stroke-width="1"/>
<line x1="37" y1="433" x2="790" y2="433" stroke="rgb(180,180,180)" stroke-width="1"/>
<line x1="37" y1="369" x2="790" y2="369" stroke="rgb(180,180,180)" stroke-width="1"/>
<line x1="37" y1="306" x2="790" y2="306" stroke="rgb(180,180,180)" stroke-width="1"/>
<line x1="37" y1="242" x2="790" y2="242" stroke="rgb(180,180,180)" stroke-width="1"/>
<line x1="37" y1="178" x2="790" y2="178" stroke="rgb(180,180,180)" stroke-width="1"/>
<line x1="37" y1="114" x2="790" y2="114" stroke="rgb(180,180,180)" stroke-width="1"/>
<line x1="37" y1="51" x2="790" y2="51" stroke="rgb(180,180,180)" stroke-width="1"/>
<line x1="62" y1="560" x2="112" y2="560" stroke="rgb(136,34,85)" stroke-width="1"/>
<line x1="112" y1="560" x2="162" y2="560" stroke="rgb(136,34,85)" stroke-width="1"/>
<line x1="162" y1="560" x2="212" y2="560" stroke="rgb(136,34,85)" stroke-width="1"/>
<line x1="212" y1="560" x2="262" y2="559" stroke="rgb(136,34,85)" stroke-width="1"/>
<line x1="262" y1="559" x2="312" y2="557" stroke="rgb(136,34,85)" stroke-width="1"/>
<line x1="312" y1="557" x2="362" y2="556" stroke="rgb(136,34,85)" stroke-width="1"/>
<line x1="362" y1="556" x2="412" y2="553" stroke="rgb(136,34,85)" stroke-width="1"/>
<line x1="412" y1="553" x2="462" y2="548" stroke="rgb(136,34,85)" stroke-width="1"/>
<line x1="462" y1="548" x2="512" y2="541" stroke="rgb(136,34,85)" stroke-width="1"/>
<line x1="512" y1="541" x2="562" y2="532" stroke="rgb(136,34,85)" stroke-width="1"/>
<line x1="562" y1="532" x2="612" y2="519" stroke="rgb(136,34,85)" stroke-width="1"/>
<line x1="612" y1="519" x2="662" y2="489" stroke="rgb(136,34,85)" stroke-width="1"/>
<line x1="662" y1="489" x2="712" y2="401" stroke="rgb(136,34,85)" stroke-width="1"/>
<line x1="712" y1="401" x2="762" y2="40" stroke="rgb(136,34,85)" stroke-width="1"/>
<rect width="183" height="23" x="607" y="40" style="fill:rgb(255,255,255);stroke:none"/>
<rect width="183" height="23" x="607" y="40" rx="0" ry="0" style="fill:none;stroke-width:1;stroke:rgb(192,192,192)"/>
<text x="610" y="55" fill="rgb(136,34,85)" font-family="Arial" font-size="12" font-weight="bold">Average Quality per read</text>
</svg>
