<?xml version="1.0" standalone="no"?>
<!DOCTYPE svg PUBLIC "-//W3C//DTD SVG 1.1//EN" "http://www.w3.org/Graphics/SVG/1.1/DTD/svg11.dtd">
<svg width="800" height="600" version="1.1" xmlns="http://www.w3.org/2000/svg">
<rect width="800" height="600" x="0" y="0" style="fill:rgb(238,238,238);stroke:none"/>
<rect width="800" height="600" x="0" y="0" style="fill:rgb(255,255,255);stroke:none"/>
<text x="2" y="566" fill="rgb(0,0,0)" font-family="Arial" font-size="12">0</text>
<text x="2" y="474" fill="rgb(0,0,0)" font-family="Arial" font-size="12">10000</text>
<text x="2" y="381" fill="rgb(0,0,0)" font-family="Arial" font-size="12">20000</text>
<text x="2" y="288" fill="rgb(0,0,0)" font-family="Arial" font-size="12">30000</text>
<text x="2" y="195" fill="rgb(0,0,0)" font-family="Arial" font-size="12">40000</text>
<text x="2" y="102" fill="rgb(0,0,0)" font-family="Arial" font-size="12">50000</text>
<text x="254" y="30" fill="rgb(0,0,0)" font-family="Arial" font-size="12">Distribution of sequence lengths over all sequences</text>
<line x1="45" y1="560" x2="790" y2="560" stroke="rgb(0,0,0)" stroke-width="1"/>
<line x1="45" y1="560" x2="45" y2="40" stroke="rgb(0,0,0)" stroke-width="1"/>
<text x="330" y="595" fill="rgb(0,0,0)" font-family="Arial" font-size="12">Sequence Length (bp)</text>
<text x="157" y="575" fill="rgb(0,0,0)" font-family="Arial" font-size="12">300</text>
<rect width="248" height="520" x="293" y="40" style="fill:rgb(230,230,230);stroke:none"/>
<text x="405" y="575" fill="rgb(0,0,0)" font-family="Arial" font-size="12">301</text>
<text x="653" y="575" fill="rgb(0,0,0)" font-family="Arial" font-size="12">302</text>
<line x1="45" y1="560" x2="790" y2="560" stroke="rgb(180,180,180)" stroke-width="1"/>
<line x1="45" y1="468" x2="790" y2="468" stroke="rgb(180,180,180)" stroke-width="1"/>
<line x1="45" y1="375" x2="790" y2="375" stroke="rgb(180,180,180)" stroke-width="1"/>
<line x1="45" y1="282" x2="790" y2="282" stroke="rgb(180,180,180)" stroke-width="1"/>
<line x1="45" y1="189" x2="790" y2="189" stroke="rgb(180,180,180)" stroke-width="1"/>
<line x1="45" y1="96" x2="790" y2="96" stroke="rgb(180,180,180)" stroke-width="1"/>
<line x1="169" y1="560" x2="417" y2="40" stroke="rgb(136,34,85)" stroke-width="1"/>
<line x1="417" y1="40" x2="665" y2="560" stroke="rgb(136,34,85)" stroke-width="1"/>
<rect width="130" height="23" x="660" y="40" style="fill:rgb(255,255,255);stroke:none"/>
<rect width="130" height="23" x="660" y="40" rx="0" ry="0" style="fill:none;stroke-width:1;stroke:rgb(192,192,192)"/>
<text x="663" y="55" fill="rgb(136,34,85)" font-family="Arial" font-size="12" font-weight="bold">Sequence Length</text>
</svg>
