<?xml version="1.0" standalone="no"?>
<!DOCTYPE svg PUBLIC "-//W3C//DTD SVG 1.1//EN" "http://www.w3.org/Graphics/SVG/1.1/DTD/svg11.dtd">
<svg width="800" height="600" version="1.1" xmlns="http://www.w3.org/2000/svg">
<rect width="800" height="600" x="0" y="0" style="fill:rgb(238,238,238);stroke:none"/>
<rect width="800" height="600" x="0" y="0" style="fill:rgb(255,255,255);stroke:none"/>
<text x="2" y="566" fill="rgb(0,0,0)" font-family="Arial" font-size="12">0</text>
<text x="2" y="487" fill="rgb(0,0,0)" font-family="Arial" font-size="12">2000</text>
<text x="2" y="407" fill="rgb(0,0,0)" font-family="Arial" font-size="12">4000</text>
<text x="2" y="327" fill="rgb(0,0,0)" font-family="Arial" font-size="12">6000</text>
<text x="2" y="248" fill="rgb(0,0,0)" font-family="Arial" font-size="12">8000</text>
<text x="2" y="168" fill="rgb(0,0,0)" font-family="Arial" font-size="12">10000</text>
<text x="2" y="88" fill="rgb(0,0,0)" font-family="Arial" font-size="12">12000</text>
<text x="278" y="30" fill="rgb(0,0,0)" font-family="Arial" font-size="12">Quality score distribution over all sequences</text>
<line x1="45" y1="560" x2="790" y2="560" stroke="rgb(0,0,0)" stroke-width="1"/>
<line x1="45" y1="560" x2="45" y2="40" stroke="rgb(0,0,0)" stroke-width="1"/>
<text x="281" y="595" fill="rgb(0,0,0)" font-family="Arial" font-size="12">Mean Sequence Quality (Phred Score)</text>
<text x="55" y="575" fill="rgb(0,0,0)" font-family="Arial" font-size="12">18</text>
<rect width="37" height="520" x="82" y="40" style="fill:rgb(230,230,230);stroke:none"/>
<text x="92" y="575" fill="rgb(0,0,0)" font-family="Arial" font-size="12">19</text>
<text x="129" y="575" fill="rgb(0,0,0)" font-family="Arial" font-size="12">20</text>
<rect width="37" height="520" x="156" y="40" style="fill:rgb(230,230,230);stroke:none"/>
<text x="166" y="575" fill="rgb(0,0,0)" font-family="Arial" font-size="12">21</text>
<text x="203" y="575" fill="rgb(0,0,0)" font-family="Arial" font-size="12">22</text>
<rect width="37" height="520" x="230" y="40" style="fill:rgb(230,230,230);stroke:none"/>
<text x="240" y="575" fill="rgb(0,0,0)" font-family="Arial" font-size="12">23</text>
<text x="277" y="575" fill="rgb(0,0,0)" font-family="Arial" font-size="12">24</text>
<rect width="37" height="520" x="304" y="40" style="fill:rgb(230,230,230);stroke:none"/>
<text x="314" y="575" fill="rgb(0,0,0)" font-family="Arial" font-size="12">25</text>
<text x="351" y="575" fill="rgb(0,0,0)" font-family="Arial" font-size="12">26</text>
<rect width="37" height="520" x="378" y="40" style="fill:rgb(230,230,230);stroke:none"/>
<text x="388" y="575" fill="rgb(0,0,0)" font-family="Arial" font-size="12">27</text>
<text x="425" y="575" fill="rgb(0,0,0)" font-family="Arial" font-size="12">28</text>
<rect width="37" height="520" x="452" y="40" style="fill:rgb(230,230,230);stroke:none"/>
<text x="462" y="575" fill="rgb(0,0,0)" font-family="Arial" font-size="12">29</text>
<text x="499" y="575" fill="rgb(0,0,0)" font-family="Arial" font-size="12">30</text>
<rect width="37" height="520" x="526" y="40" style="fill:rgb(230,230,230);stroke:none"/>
<text x="536" y="575" fill="rgb(0,0,0)" font-family="Arial" font-size="12">31</text>
<text x="573" y="575" fill="rgb(0,0,0)" font-family="Arial" font-size="12">32</text>
<rect width="37" height="520" x="600" y="40" style="fill:rgb(230,230,230);stroke:none"/>
<text x="610" y="575" fill="rgb(0,0,0)" font-family="Arial" font-size="12">33</text>
<text x="647" y="575" fill="rgb(0,0,0)" font-family="Arial" font-size="12">34</text>
<rect width="37" height="520" x="674" y="40" style="fill:rgb(230,230,230);stroke:none"/>
<text x="684" y="575" fill="rgb(0,0,0)" font-family="Arial" font-size="12">35</text>
<text x="721" y="575" fill="rgb(0,0,0)" font-family="Arial" font-size="12">36</text>
<rect width="37" height="520" x="748" y="40" style="fill:rgb(230,230,230);stroke:none"/>
<text x="758" y="575" fill="rgb(0,0,0)" font-family="Arial" font-size="12">37</text>
<line x1="45" y1="560" x2="790" y2="560" stroke="rgb(180,180,180)" stroke-width="1"/>
<line x1="45" y1="481" x2="790" y2="481" stroke="rgb(180,180,180)" stroke-width="1"/>
<line x1="45" y1="401" x2="790" y2="401" stroke="rgb(180,180,180)" stroke-width="1"/>
<line x1="45" y1="321" x2="790" y2="321" stroke="rgb(180,180,180)" stroke-width="1"/>
<line x1="45" y1="242" x2="790" y2="242" stroke="rgb(180,180,180)" stroke-width="1"/>
<line x1="45" y1="162" x2="790" y2="162" stroke="rgb(180,180,180)" stroke-width="1"/>
<line x1="45" y1="82" x2="790" y2="82" stroke="rgb(180,180,180)" stroke-width="1"/>
<line x1="63" y1="560" x2="100" y2="558" stroke="rgb(136,34,85)" stroke-width="1"/>
<line x1="100" y1="558" x2="137" y2="555" stroke="rgb(136,34,85)" stroke-width="1"/>
<line x1="137" y1="555" x2="174" y2="550" stroke="rgb(136,34,85)" stroke-width="1"/>
<line x1="174" y1="550" x2="211" y2="545" stroke="rgb(136,34,85)" stroke-width="1"/>
<line x1="211" y1="545" x2="248" y2="538" stroke="rgb(136,34,85)" stroke-width="1"/>
<line x1="248" y1="538" x2="285" y2="532" stroke="rgb(136,34,85)" stroke-width="1"/>
<line x1="285" y1="532" x2="322" y2="525" stroke="rgb(136,34,85)" stroke-width="1"/>
<line x1="322" y1="525" x2="359" y2="516" stroke="rgb(136,34,85)" stroke-width="1"/>
<line x1="359" y1="516" x2="396" y2="506" stroke="rgb(136,34,85)" stroke-width="1"/>
<line x1="396" y1="506" x2="433" y2="498" stroke="rgb(136,34,85)" stroke-width="1"/>
<line x1="433" y1="498" x2="470" y2="487" stroke="rgb(136,34,85)" stroke-width="1"/>
<line x1="470" y1="487" x2="507" y2="474" stroke="rgb(136,34,85)" stroke-width="1"/>
<line x1="507" y1="474" x2="544" y2="451" stroke="rgb(136,34,85)" stroke-width="1"/>
<line x1="544" y1="451" x2="581" y2="419" stroke="rgb(136,34,85)" stroke-width="1"/>
<line x1="581" y1="419" x2="618" y2="364" stroke="rgb(136,34,85)" stroke-width="1"/>
<line x1="618" y1="364" x2="655" y2="259" stroke="rgb(136,34,85)" stroke-width="1"/>
<line x1="655" y1="259" x2="692" y2="95" stroke="rgb(136,34,85)" stroke-width="1"/>
<line x1="692" y1="95" x2="729" y2="40" stroke="rgb(136,34,85)" stroke-width="1"/>
<line x1="729" y1="40" x2="766" y2="523" stroke="rgb(136,34,85)" stroke-width="1"/>
<rect width="183" height="23" x="607" y="40" style="fill:rgb(255,255,255);stroke:none"/>
<rect width="183" height="23" x="607" y="40" rx="0" ry="0" style="fill:none;stroke-width:1;stroke:rgb(192,192,192)"/>
<text x="610" y="55" fill="rgb(136,34,85)" font-family="Arial" font-size="12" font-weight="bold">Average Quality per read</text>
</svg>
