<?xml version="1.0" standalone="no"?>
<!DOCTYPE svg PUBLIC "-//W3C//DTD SVG 1.1//EN" "http://www.w3.org/Graphics/SVG/1.1/DTD/svg11.dtd">
<svg width="800" height="600" version="1.1" xmlns="http://www.w3.org/2000/svg">
<rect width="800" height="600" x="0" y="0" style="fill:rgb(238,238,238);stroke:none"/>
<rect width="800" height="600" x="0" y="0" style="fill:rgb(255,255,255);stroke:none"/>
<text x="2" y="566" fill="rgb(0,0,0)" font-family="Arial" font-size="12">0</text>
<text x="2" y="507" fill="rgb(0,0,0)" font-family="Arial" font-size="12">2000</text>
<text x="2" y="448" fill="rgb(0,0,0)" font-family="Arial" font-size="12">4000</text>
<text x="2" y="389" fill="rgb(0,0,0)" font-family="Arial" font-size="12">6000</text>
<text x="2" y="329" fill="rgb(0,0,0)" font-family="Arial" font-size="12">8000</text>
<text x="2" y="270" fill="rgb(0,0,0)" font-family="Arial" font-size="12">10000</text>
<text x="2" y="211" fill="rgb(0,0,0)" font-family="Arial" font-size="12">12000</text>
<text x="2" y="151" fill="rgb(0,0,0)" font-family="Arial" font-size="12">14000</text>
<text x="2" y="92" fill="rgb(0,0,0)" font-family="Arial" font-size="12">16000</text>
<text x="278" y="30" fill="rgb(0,0,0)" font-family="Arial" font-size="12">Quality score distribution over all sequences</text>
<line x1="45" y1="560" x2="790" y2="560" stroke="rgb(0,0,0)" stroke-width="1"/>
<line x1="45" y1="560" x2="45" y2="40" stroke="rgb(0,0,0)" stroke-width="1"/>
<text x="281" y="595" fill="rgb(0,0,0)" font-family="Arial" font-size="12">Mean Sequence Quality (Phred Score)</text>
<text x="55" y="575" fill="rgb(0,0,0)" font-family="Arial" font-size="12">18</text>
<rect width="37" height="520" x="82" y="40" style="fill:rgb(230,230,230);stroke:none"/>
<text x="92" y="575" fill="rgb(0,0,0)" font-family="Arial" font-size="12">19</text>
<text x="129" y="575" fill="rgb(0,0,0)" font-family="Arial" font-size="12">20</text>
<rect width="37" height="520" x="156" y="40" style="fill:rgb(230,230,230);stroke:none"/>
<text x="166" y="575" fill="rgb(0,0,0)" font-family="Arial" font-size="12">21</text>
<text x="203" y="575" fill="rgb(0,0,0)" font-family="Arial" font-size="12">22</text>
<rect width="37" height="520" x="230" y="40" style="fill:rgb(230,230,230);stroke:none"/>
<text x="240" y="575" fill="rgb(0,0,0)" font-family="Arial" font-size="12">23</text>
<text x="277" y="575" fill="rgb(0,0,0)" font-family="Arial" font-size="12">24</text>
<rect width="37" height="520" x="304" y="40" style="fill:rgb(230,230,230);stroke:none"/>
<text x="314" y="575" fill="rgb(0,0,0)" font-family="Arial" font-size="12">25</text>
<text x="351" y="575" fill="rgb(0,0,0)" font-family="Arial" font-size="12">26</text>
<rect width="37" height="520" x="378" y="40" style="fill:rgb(230,230,230);stroke:none"/>
<text x="388" y="575" fill="rgb(0,0,0)" font-family="Arial" font-size="12">27</text>
<text x="425" y="575" fill="rgb(0,0,0)" font-family="Arial" font-size="12">28</text>
<rect width="37" height="520" x="452" y="40" style="fill:rgb(230,230,230);stroke:none"/>
<text x="462" y="575" fill="rgb(0,0,0)" font-family="Arial" font-size="12">29</text>
<text x="499" y="575" fill="rgb(0,0,0)" font-family="Arial" font-size="12">30</text>
<rect width="37" height="520" x="526" y="40" style="fill:rgb(230,230,230);stroke:none"/>
<text x="536" y="575" fill="rgb(0,0,0)" font-family="Arial" font-size="12">31</text>
<text x="573" y="575" fill="rgb(0,0,0)" font-family="Arial" font-size="12">32</text>
<rect width="37" height="520" x="600" y="40" style="fill:rgb(230,230,230);stroke:none"/>
<text x="610" y="575" fill="rgb(0,0,0)" font-family="Arial" font-size="12">33</text>
<text x="647" y="575" fill="rgb(0,0,0)" font-family="Arial" font-size="12">34</text>
<rect width="37" height="520" x="674" y="40" style="fill:rgb(230,230,230);stroke:none"/>
<text x="684" y="575" fill="rgb(0,0,0)" font-family="Arial" font-size="12">35</text>
<text x="721" y="575" fill="rgb(0,0,0)" font-family="Arial" font-size="12">36</text>
<rect width="37" height="520" x="748" y="40" style="fill:rgb(230,230,230);stroke:none"/>
<text x="758" y="575" fill="rgb(0,0,0)" font-family="Arial" font-size="12">37</text>
<line x1="45" y1="560" x2="790" y2="560" stroke="rgb(180,180,180)" stroke-width="1"/>
<line x1="45" y1="501" x2="790" y2="501" stroke="rgb(180,180,180)" stroke-width="1"/>
<line x1="45" y1="442" x2="790" y2="442" stroke="rgb(180,180,180)" stroke-width="1"/>
<line x1="45" y1="383" x2="790" y2="383" stroke="rgb(180,180,180)" stroke-width="1"/>
<line x1="45" y1="323" x2="790" y2="323" stroke="rgb(180,180,180)" stroke-width="1"/>
<line x1="45" y1="264" x2="790" y2="264" stroke="rgb(180,180,180)" stroke-width="1"/>
<line x1="45" y1="205" x2="790" y2="205" stroke="rgb(180,180,180)" stroke-width="1"/>
<line x1="45" y1="145" x2="790" y2="145" stroke="rgb(180,180,180)" stroke-width="1"/>
<line x1="45" y1="86" x2="790" y2="86" stroke="rgb(180,180,180)" stroke-width="1"/>
<line x1="63" y1="560" x2="100" y2="559" stroke="rgb(136,34,85)" stroke-width="1"/>
<line x1="100" y1="559" x2="137" y2="558" stroke="rgb(136,34,85)" stroke-width="1"/>
<line x1="137" y1="558" x2="174" y2="554" stroke="rgb(136,34,85)" stroke-width="1"/>
<line x1="174" y1="554" x2="211" y2="549" stroke="rgb(136,34,85)" stroke-width="1"/>
<line x1="211" y1="549" x2="248" y2="545" stroke="rgb(136,34,85)" stroke-width="1"/>
<line x1="248" y1="545" x2="285" y2="540" stroke="rgb(136,34,85)" stroke-width="1"/>
<line x1="285" y1="540" x2="322" y2="534" stroke="rgb(136,34,85)" stroke-width="1"/>
<line x1="322" y1="534" x2="359" y2="529" stroke="rgb(136,34,85)" stroke-width="1"/>
<line x1="359" y1="529" x2="396" y2="522" stroke="rgb(136,34,85)" stroke-width="1"/>
<line x1="396" y1="522" x2="433" y2="517" stroke="rgb(136,34,85)" stroke-width="1"/>
<line x1="433" y1="517" x2="470" y2="505" stroke="rgb(136,34,85)" stroke-width="1"/>
<line x1="470" y1="505" x2="507" y2="492" stroke="rgb(136,34,85)" stroke-width="1"/>
<line x1="507" y1="492" x2="544" y2="475" stroke="rgb(136,34,85)" stroke-width="1"/>
<line x1="544" y1="475" x2="581" y2="448" stroke="rgb(136,34,85)" stroke-width="1"/>
<line x1="581" y1="448" x2="618" y2="402" stroke="rgb(136,34,85)" stroke-width="1"/>
<line x1="618" y1="402" x2="655" y2="320" stroke="rgb(136,34,85)" stroke-width="1"/>
<line x1="655" y1="320" x2="692" y2="160" stroke="rgb(136,34,85)" stroke-width="1"/>
<line x1="692" y1="160" x2="729" y2="40" stroke="rgb(136,34,85)" stroke-width="1"/>
<line x1="729" y1="40" x2="766" y2="517" stroke="rgb(136,34,85)" stroke-width="1"/>
<rect width="183" height="23" x="607" y="40" style="fill:rgb(255,255,255);stroke:none"/>
<rect width="183" height="23" x="607" y="40" rx="0" ry="0" style="fill:none;stroke-width:1;stroke:rgb(192,192,192)"/>
<text x="610" y="55" fill="rgb(136,34,85)" font-family="Arial" font-size="12" font-weight="bold">Average Quality per read</text>
</svg>
